# Blender 4.3.2
# www.blender.org
mtllib House4.mtl
o Cube
v 3.594283 3.843013 -1.466891
v 3.546760 -0.785610 0.876587
v -0.522384 -0.004630 0.267664
v -0.522384 0.477601 0.267664
v -0.522384 -0.004630 -0.322230
v -0.522384 0.477601 -0.322230
v 0.577546 -0.004630 0.267664
v 0.577546 0.477601 0.267664
v 0.577546 -0.004630 -0.322230
v 0.577546 0.477601 -0.322230
v 0.022351 0.778477 0.267664
v -0.522384 0.477601 0.267664
v -0.522384 0.477601 -0.322230
v 0.022351 0.778477 -0.322230
v 0.032811 0.778477 -0.322230
v 0.577546 0.477601 -0.322230
v 0.577546 0.477601 0.267664
v 0.032811 0.778477 0.267664
v -0.197972 -0.002432 0.267664
v -0.197972 -0.002432 0.331653
v -0.377837 -0.002432 0.267664
v -0.377837 -0.002432 0.331653
v -0.197972 0.044988 0.267664
v -0.197972 0.044988 0.331653
v -0.377837 0.044988 0.267664
v -0.377837 0.044988 0.331653
v -0.235353 0.203035 0.267664
v -0.235493 0.049298 0.267664
v -0.345551 0.049301 0.267664
v -0.345547 0.202548 0.267664
v -0.235353 0.203035 0.243892
v -0.235493 0.049298 0.243892
v -0.345551 0.049301 0.243892
v -0.345547 0.202548 0.243892
v 19.773367 -1.282842 -1.356856
v 19.773367 -1.282842 0.105137
v 20.849997 -0.516044 -1.356856
v 20.849997 -0.516044 0.105137
v 21.112513 0.283732 -1.356856
v 21.112513 0.283732 0.105137
v 28.138803 -0.678671 -1.228366
v 28.138803 -0.658721 -1.228366
v 28.138803 -0.658721 -0.228366
v 29.138803 -0.658721 -1.228366
v 28.638803 -0.658721 -1.228366
v 29.638803 -0.658721 -1.228366
v 28.388803 -0.658721 -1.228366
v 29.388803 -0.658721 -1.228366
v 28.888803 -0.658721 -1.228366
v 29.888803 -0.658721 -1.228366
v 28.263803 -0.658721 -1.228366
v 29.263803 -0.658721 -1.228366
v 28.763803 -0.658721 -1.228366
v 29.763803 -0.658721 -1.228366
v 28.513803 -0.658721 -1.228366
v 29.513803 -0.658721 -1.228366
v 29.013803 -0.658721 -1.228366
v 30.013803 -0.658721 -1.228366
v 28.201303 -0.658721 -1.228366
v 28.138803 -0.658721 -0.290866
v 29.201303 -0.658721 -1.228366
v 28.701303 -0.658721 -1.228366
v 29.701303 -0.658721 -1.228366
v 28.451303 -0.658721 -1.228366
v 29.451303 -0.658721 -1.228366
v 28.951303 -0.658721 -1.228366
v 29.951303 -0.658721 -1.228366
v 28.326303 -0.658721 -1.228366
v 29.326303 -0.658721 -1.228366
v 28.826303 -0.658721 -1.228366
v 29.826303 -0.658721 -1.228366
v 28.576303 -0.658721 -1.228366
v 29.576303 -0.658721 -1.228366
v 29.076303 -0.658721 -1.228366
v 30.076303 -0.658721 -1.228366
v 28.138803 -0.658721 0.740384
v 28.170053 -0.658721 -1.228366
v 28.138803 -0.658721 -0.259616
v 29.170053 -0.658721 -1.228366
v 28.670053 -0.658721 -1.228366
v 29.670053 -0.658721 -1.228366
v 28.420053 -0.658721 -1.228366
v 29.420053 -0.658721 -1.228366
v 28.920053 -0.658721 -1.228366
v 29.920053 -0.658721 -1.228366
v 28.295053 -0.658721 -1.228366
v 29.295053 -0.658721 -1.228366
v 28.795053 -0.658721 -1.228366
v 29.795053 -0.658721 -1.228366
v 28.545053 -0.658721 -1.228366
v 29.545053 -0.658721 -1.228366
v 29.045053 -0.658721 -1.228366
v 30.045053 -0.658721 -1.228366
v 28.232553 -0.658721 -1.228366
v 28.138803 -0.658721 -0.322116
v 29.232553 -0.658721 -1.228366
v 28.732553 -0.658721 -1.228366
v 29.732553 -0.658721 -1.228366
v 28.482553 -0.658721 -1.228366
v 29.482553 -0.658721 -1.228366
v 28.982553 -0.658721 -1.228366
v 29.982553 -0.658721 -1.228366
v 28.357553 -0.658721 -1.228366
v 29.357553 -0.658721 -1.228366
v 28.857553 -0.658721 -1.228366
v 29.857553 -0.658721 -1.228366
v 28.607553 -0.658721 -1.228366
v 29.607553 -0.658721 -1.228366
v 29.107553 -0.658721 -1.228366
v 28.138803 -0.658721 -1.197116
v 30.107553 -0.658721 -1.228366
v 34.762123 -0.623510 -0.865759
v 32.430134 -0.658721 -0.228366
v 32.430134 -0.658721 -0.728366
v 32.430134 -0.658721 0.271634
v 32.430134 -0.658721 -0.978366
v 32.430134 -0.658721 0.021634
v 32.430134 -0.658721 -0.478366
v 32.430134 -0.658721 0.521634
v 32.430134 -0.658721 -1.103366
v 32.430134 -0.658721 -0.103366
v 32.430134 -0.658721 -0.603366
v 32.430134 -0.658721 0.396634
v 32.430134 -0.658721 -0.853366
v 32.430134 -0.658721 0.146634
v 32.430134 -0.658721 -0.353366
v 32.430134 -0.658721 0.646634
v 32.430134 -0.658721 -1.165866
v 32.430134 -0.658721 -0.165866
v 32.430134 -0.658721 -0.665866
v 32.430134 -0.658721 0.334134
v 32.430134 -0.658721 -0.915866
v 32.430134 -0.658721 0.084134
v 32.430134 -0.658721 -0.415866
v 32.430134 -0.658721 0.584134
v 32.430134 -0.658721 -1.040866
v 32.430134 -0.658721 -0.040866
v 32.430134 -0.658721 -0.540866
v 32.430134 -0.658721 0.459134
v 32.430134 -0.658721 -0.790866
v 32.430134 -0.658721 0.209134
v 32.430134 -0.658721 -0.290866
v 32.430134 -0.658721 0.709134
v 30.430136 -0.658721 0.740384
v 32.430134 -0.658721 -1.197116
v 32.430134 -0.658721 -0.197116
v 32.430134 -0.658721 -0.697116
v 32.430134 -0.658721 0.302884
v 32.430134 -0.658721 -0.947116
v 32.430134 -0.658721 0.052884
v 32.430134 -0.658721 -0.447116
v 32.430134 -0.658721 0.552884
v 32.430134 -0.658721 -1.072116
v 32.430134 -0.658721 -0.072116
v 32.430134 -0.658721 -0.572116
v 32.430134 -0.658721 0.427884
v 32.430134 -0.658721 -0.822116
v 32.430134 -0.658721 0.177884
v 32.430134 -0.658721 -0.322116
v 32.430134 -0.658721 0.677884
v 32.430134 -0.658721 -1.134616
v 32.430134 -0.658721 -0.134616
v 32.430134 -0.658721 -0.634616
v 32.430134 -0.658721 0.365384
v 32.430134 -0.658721 -0.884616
v 32.430134 -0.658721 0.115384
v 32.430134 -0.658721 -0.384616
v 32.430134 -0.658721 0.615384
v 32.430134 -0.658721 -1.009616
v 32.430134 -0.658721 -0.009616
v 32.430134 -0.658721 -0.509616
v 32.430134 -0.658721 0.490384
v 32.430134 -0.658721 -0.759616
v 32.430134 -0.658721 0.240384
v 32.430134 -0.658721 -0.259616
v 30.430136 -0.658721 -1.197116
v 32.430134 -0.658721 0.740384
v 32.398884 -0.658721 0.709134
v 32.398884 -0.658721 -1.165866
v 32.677120 -0.658721 -0.228366
v 32.677120 -0.658721 -0.353366
v 32.677120 -0.658721 -0.103366
v 32.677120 -0.658721 -0.290866
v 32.677120 -0.658721 -0.415866
v 32.677120 -0.658721 -0.165866
v 32.677120 -0.658721 -0.259616
v 32.677120 -0.658721 -0.384616
v 32.677120 -0.658721 -0.134616
v 32.677120 -0.658721 -0.322116
v 32.677120 -0.658721 -0.072116
v 32.677120 -0.658721 -0.447116
v 32.677120 -0.658721 -0.197116
v 34.764866 -0.652380 0.759778
v 32.522476 -0.878093 0.212323
v 32.710068 -0.878093 0.269228
v 32.882957 -0.878093 0.361638
v 33.034492 -0.878093 0.486001
v 33.158852 -0.878093 0.637538
v 33.251266 -0.878093 0.810424
v 33.308167 -0.878093 0.998018
v 33.327385 -0.878093 1.193108
v 33.308167 -0.878093 1.388198
v 33.251266 -0.878093 1.575791
v 33.158852 -0.878093 1.748678
v 33.034492 -0.878093 1.900215
v 32.882957 -0.878093 2.024578
v 32.710068 -0.878093 2.116987
v 32.522476 -0.878093 2.173893
v 32.327385 -0.878093 2.193108
v 32.132294 -0.878093 2.173893
v 31.944704 -0.878093 2.116987
v 31.771814 -0.878093 2.024578
v 31.620279 -0.878093 1.900215
v 31.495913 -0.878093 1.748678
v 31.403505 -0.878093 1.575791
v 31.346600 -0.878093 1.388198
v 31.327385 -0.878093 1.193108
v 31.346600 -0.878093 0.998018
v 31.403505 -0.878093 0.810424
v 31.495913 -0.878093 0.637538
v 31.620279 -0.878093 0.486001
v 31.771814 -0.878093 0.361638
v 31.944704 -0.878093 0.269228
v 32.132294 -0.878093 0.212323
v 32.327385 -0.878093 0.193108
vn -1.0000 -0.0000 -0.0000
vn -0.0000 -0.0000 -1.0000
vn 1.0000 -0.0000 -0.0000
vn -0.0000 -0.0000 1.0000
vn -0.0000 -1.0000 -0.0000
vn -0.0000 1.0000 -0.0000
vn -0.4835 0.8754 -0.0000
vn 0.4835 0.8754 -0.0000
vn -1.0000 0.0009 -0.0000
vn 0.0044 -1.0000 -0.0000
vt 0.375000 0.000000
vt 0.625000 0.000000
vt 0.625000 0.250000
vt 0.375000 0.250000
vt 0.625000 0.500000
vt 0.375000 0.500000
vt 0.625000 0.750000
vt 0.375000 0.750000
vt 0.482659 0.934762
vt 0.402958 0.934793
vt 0.402959 0.959808
vt 0.375000 1.000000
vt 0.125000 0.500000
vt 0.125000 0.750000
vt 0.625000 0.373811
vt 0.625000 0.376189
vt 0.625000 1.000000
vt 0.625000 0.873811
vt 0.625000 0.876189
vt 0.748811 0.500000
vt 0.748811 0.750000
vt 0.751189 0.500000
vt 0.751189 0.750000
vt 0.875000 0.500000
vt 0.875000 0.750000
vt 0.482406 0.959807
s 0
usemtl Material
f 3/1/1 4/2/1 6/3/1 5/4/1
f 5/4/2 6/3/2 10/5/2 9/6/2
f 9/6/3 10/5/3 8/7/3 7/8/3
f 7/8/4 27/9/4 28/10/4 29/11/4 3/12/4
f 5/13/5 9/6/5 7/8/5 3/14/5
f 10/5/2 6/3/2 13/3/2 14/15/2 15/16/2 16/5/2
f 4/17/4 8/7/4 17/7/4 18/18/4 11/19/4 12/17/4
f 6/3/6 4/2/6 12/2/6 13/3/6
f 8/7/6 10/5/6 16/5/6 17/7/6
f 11/2/7 14/3/7 13/3/7 12/2/7
f 15/20/8 18/21/8 17/7/8 16/5/8
f 15/20/6 14/22/6 11/23/6 18/21/6
f 19/1/5 20/2/5 22/3/5 21/4/5
f 21/4/1 22/3/1 26/5/1 25/6/1
f 25/6/6 26/5/6 24/7/6 23/8/6
f 23/8/3 24/7/3 20/17/3 19/12/3
f 21/13/2 25/6/2 23/8/2 19/14/2
f 26/5/4 22/24/4 20/25/4 24/7/4
f 34/26/4 33/11/4 32/10/4 31/9/4
f 3/12/4 29/11/4 30/26/4 27/9/4 7/8/4 8/7/4 4/17/4
f 30/26/3 29/11/3 33/11/3 34/26/3
f 28/10/9 27/9/9 31/9/9 32/10/9
f 27/9/10 30/26/10 34/26/10 31/9/10
f 29/11/6 28/10/6 32/10/6 33/11/6
l 35 36
l 38 37
l 39 40
l 77 42
l 41 42
l 78 43
l 79 44
l 80 45
l 81 46
l 82 47
l 83 48
l 84 49
l 85 50
l 86 51
l 87 52
l 88 53
l 89 54
l 90 55
l 91 56
l 92 57
l 93 58
l 94 59
l 95 60
l 96 61
l 97 62
l 98 63
l 99 64
l 100 65
l 101 66
l 102 67
l 103 68
l 104 69
l 105 70
l 106 71
l 107 72
l 108 73
l 109 74
l 111 75
l 59 77
l 60 78
l 61 79
l 62 80
l 63 81
l 64 82
l 65 83
l 66 84
l 67 85
l 68 86
l 69 87
l 70 88
l 71 89
l 72 90
l 73 91
l 74 92
l 75 93
l 51 94
l 52 96
l 53 97
l 54 98
l 55 99
l 56 100
l 57 101
l 58 102
l 47 103
l 48 104
l 49 105
l 50 106
l 45 107
l 46 108
l 44 109
l 42 110
l 146 113
l 147 114
l 148 115
l 149 116
l 150 117
l 151 118
l 152 119
l 153 120
l 154 121
l 155 122
l 156 123
l 157 124
l 158 125
l 159 126
l 160 127
l 161 128
l 162 129
l 163 130
l 164 131
l 165 132
l 166 133
l 167 134
l 168 135
l 169 136
l 170 137
l 171 138
l 172 139
l 173 140
l 174 141
l 175 142
l 177 143
l 128 145
l 129 146
l 130 147
l 131 148
l 132 149
l 133 150
l 134 151
l 135 152
l 136 153
l 137 154
l 138 155
l 139 156
l 140 157
l 141 158
l 142 159
l 143 160
l 120 161
l 121 162
l 122 163
l 123 164
l 124 165
l 125 166
l 126 167
l 127 168
l 116 169
l 117 170
l 118 171
l 119 172
l 114 173
l 115 174
l 113 175
l 143 178
l 128 179
l 186 180
l 187 181
l 188 182
l 189 183
l 191 184
l 192 185
l 183 186
l 184 187
l 185 188
l 181 189
l 182 190
l 180 192
l 225 194
l 195 196
l 198 199
l 200 201
l 202 203
l 203 204
l 205 206
l 206 207
l 208 209
l 209 210
l 210 211
l 211 212
l 213 214
l 214 215
l 216 217
l 218 219
l 194 195
l 196 197
l 197 198
l 221 222
l 222 223
l 223 224
l 224 225
l 199 200
l 220 221
l 201 202
l 212 213
l 204 205
l 215 216
l 217 218
l 207 208
l 219 220
