# Blender 4.3.2
# www.blender.org
mtllib House6.mtl
o Cube
v 3.594283 3.843013 -1.466891
v 3.421760 -1.008795 0.876587
v 3.296760 -1.008795 0.876587
v 3.546760 -1.008795 0.876587
v 3.546760 -0.785610 0.876587
v 3.296760 -1.008795 0.709241
v 3.421760 -1.008795 0.709241
v 3.421760 -1.008795 0.876587
v 3.546760 -1.008795 0.709241
v 3.546760 -0.785610 0.709241
v 3.296760 -1.008795 0.876587
v 3.296760 -1.008795 0.709241
v 3.421760 -1.008795 0.709241
v 3.546760 -0.785610 0.876587
v 3.546760 -0.785610 0.757502
v -0.235963 0.038131 0.554698
v -0.235963 0.447116 0.554698
v -0.235963 0.038131 -0.182249
v -0.235963 0.447116 -0.182249
v 0.386390 0.038131 0.554698
v 0.386390 0.447116 0.554698
v 0.386390 0.038131 -0.182249
v 0.386390 0.447116 -0.182249
v -0.113148 0.038131 0.554698
v 0.020175 0.038131 0.554698
v -0.112572 0.241838 0.554698
v 0.019946 0.242186 0.554698
v -0.113148 0.038131 0.533624
v 0.020175 0.038131 0.533624
v -0.112572 0.241838 0.533624
v 0.019946 0.242186 0.533624
v 19.773367 -1.282842 -1.356856
v 19.773367 -1.282842 0.105137
v 20.849997 -0.516044 -1.356856
v 20.849997 -0.516044 0.105137
v 21.112513 0.283732 -1.356856
v 21.112513 0.283732 0.105137
v 28.138803 -0.678671 -1.228366
v 28.138803 -0.658721 -1.228366
v 28.138803 -0.658721 -0.228366
v 29.138803 -0.658721 -1.228366
v 28.638803 -0.658721 -1.228366
v 29.638803 -0.658721 -1.228366
v 28.388803 -0.658721 -1.228366
v 29.388803 -0.658721 -1.228366
v 28.888803 -0.658721 -1.228366
v 29.888803 -0.658721 -1.228366
v 28.263803 -0.658721 -1.228366
v 29.263803 -0.658721 -1.228366
v 28.763803 -0.658721 -1.228366
v 29.763803 -0.658721 -1.228366
v 28.513803 -0.658721 -1.228366
v 29.513803 -0.658721 -1.228366
v 29.013803 -0.658721 -1.228366
v 30.013803 -0.658721 -1.228366
v 28.201303 -0.658721 -1.228366
v 28.138803 -0.658721 -0.290866
v 29.201303 -0.658721 -1.228366
v 28.701303 -0.658721 -1.228366
v 29.701303 -0.658721 -1.228366
v 28.451303 -0.658721 -1.228366
v 29.451303 -0.658721 -1.228366
v 28.951303 -0.658721 -1.228366
v 29.951303 -0.658721 -1.228366
v 28.326303 -0.658721 -1.228366
v 29.326303 -0.658721 -1.228366
v 28.826303 -0.658721 -1.228366
v 29.826303 -0.658721 -1.228366
v 28.576303 -0.658721 -1.228366
v 29.576303 -0.658721 -1.228366
v 29.076303 -0.658721 -1.228366
v 30.076303 -0.658721 -1.228366
v 28.138803 -0.658721 0.740384
v 28.170053 -0.658721 -1.228366
v 28.138803 -0.658721 -0.259616
v 29.170053 -0.658721 -1.228366
v 28.670053 -0.658721 -1.228366
v 29.670053 -0.658721 -1.228366
v 28.420053 -0.658721 -1.228366
v 29.420053 -0.658721 -1.228366
v 28.920053 -0.658721 -1.228366
v 29.920053 -0.658721 -1.228366
v 28.295053 -0.658721 -1.228366
v 29.295053 -0.658721 -1.228366
v 28.795053 -0.658721 -1.228366
v 29.795053 -0.658721 -1.228366
v 28.545053 -0.658721 -1.228366
v 29.545053 -0.658721 -1.228366
v 29.045053 -0.658721 -1.228366
v 30.045053 -0.658721 -1.228366
v 28.232553 -0.658721 -1.228366
v 28.138803 -0.658721 -0.322116
v 29.232553 -0.658721 -1.228366
v 28.732553 -0.658721 -1.228366
v 29.732553 -0.658721 -1.228366
v 28.482553 -0.658721 -1.228366
v 29.482553 -0.658721 -1.228366
v 28.982553 -0.658721 -1.228366
v 29.982553 -0.658721 -1.228366
v 28.357553 -0.658721 -1.228366
v 29.357553 -0.658721 -1.228366
v 28.857553 -0.658721 -1.228366
v 29.857553 -0.658721 -1.228366
v 28.607553 -0.658721 -1.228366
v 29.607553 -0.658721 -1.228366
v 29.107553 -0.658721 -1.228366
v 28.138803 -0.658721 -1.197116
v 30.107553 -0.658721 -1.228366
v 32.430134 -0.658721 -0.228366
v 32.430134 -0.658721 -0.728366
v 32.430134 -0.658721 0.271634
v 32.430134 -0.658721 -0.978366
v 32.430134 -0.658721 0.021634
v 32.430134 -0.658721 -0.478366
v 32.430134 -0.658721 0.521634
v 32.430134 -0.658721 -1.103366
v 32.430134 -0.658721 -0.103366
v 32.430134 -0.658721 -0.603366
v 32.430134 -0.658721 0.396634
v 32.430134 -0.658721 -0.853366
v 32.430134 -0.658721 0.146634
v 32.430134 -0.658721 -0.353366
v 32.430134 -0.658721 0.646634
v 32.430134 -0.658721 -1.165866
v 32.430134 -0.658721 -0.165866
v 32.430134 -0.658721 -0.665866
v 32.430134 -0.658721 0.334134
v 32.430134 -0.658721 -0.915866
v 32.430134 -0.658721 0.084134
v 32.430134 -0.658721 -0.415866
v 32.430134 -0.658721 0.584134
v 32.430134 -0.658721 -1.040866
v 32.430134 -0.658721 -0.040866
v 32.430134 -0.658721 -0.540866
v 32.430134 -0.658721 0.459134
v 32.430134 -0.658721 -0.790866
v 32.430134 -0.658721 0.209134
v 32.430134 -0.658721 -0.290866
v 32.430134 -0.658721 0.709134
v 30.430136 -0.658721 0.740384
v 32.430134 -0.658721 -1.197116
v 32.430134 -0.658721 -0.197116
v 32.430134 -0.658721 -0.697116
v 32.430134 -0.658721 0.302884
v 32.430134 -0.658721 -0.947116
v 32.430134 -0.658721 0.052884
v 32.430134 -0.658721 -0.447116
v 32.430134 -0.658721 0.552884
v 32.430134 -0.658721 -1.072116
v 32.430134 -0.658721 -0.072116
v 32.430134 -0.658721 -0.572116
v 32.430134 -0.658721 0.427884
v 32.430134 -0.658721 -0.822116
v 32.430134 -0.658721 0.177884
v 32.430134 -0.658721 -0.322116
v 32.430134 -0.658721 0.677884
v 32.430134 -0.658721 -1.134616
v 32.430134 -0.658721 -0.134616
v 32.430134 -0.658721 -0.634616
v 32.430134 -0.658721 0.365384
v 32.430134 -0.658721 -0.884616
v 32.430134 -0.658721 0.115384
v 32.430134 -0.658721 -0.384616
v 32.430134 -0.658721 0.615384
v 32.430134 -0.658721 -1.009616
v 32.430134 -0.658721 -0.009616
v 32.430134 -0.658721 -0.509616
v 32.430134 -0.658721 0.490384
v 32.430134 -0.658721 -0.759616
v 32.430134 -0.658721 0.240384
v 32.430134 -0.658721 -0.259616
v 30.430136 -0.658721 -1.197116
v 32.430134 -0.658721 0.740384
v 32.398884 -0.658721 0.709134
v 32.398884 -0.658721 -1.165866
v 32.677120 -0.658721 -0.228366
v 32.677120 -0.658721 -0.353366
v 32.677120 -0.658721 -0.103366
v 32.677120 -0.658721 -0.290866
v 32.677120 -0.658721 -0.415866
v 32.677120 -0.658721 -0.165866
v 32.677120 -0.658721 -0.259616
v 32.677120 -0.658721 -0.384616
v 32.677120 -0.658721 -0.134616
v 32.677120 -0.658721 -0.322116
v 32.677120 -0.658721 -0.072116
v 32.677120 -0.658721 -0.447116
v 32.677120 -0.658721 -0.197116
v 32.522476 -0.878093 0.212323
v 32.710068 -0.878093 0.269228
v 32.882957 -0.878093 0.361638
v 33.034492 -0.878093 0.486001
v 33.158852 -0.878093 0.637538
v 33.251266 -0.878093 0.810424
v 33.308167 -0.878093 0.998018
v 33.327385 -0.878093 1.193108
v 33.308167 -0.878093 1.388198
v 33.251266 -0.878093 1.575791
v 33.158852 -0.878093 1.748678
v 33.034492 -0.878093 1.900215
v 32.882957 -0.878093 2.024578
v 32.710068 -0.878093 2.116987
v 32.522476 -0.878093 2.173893
v 32.327385 -0.878093 2.193108
v 32.132294 -0.878093 2.173893
v 31.944704 -0.878093 2.116987
v 31.771814 -0.878093 2.024578
v 31.620279 -0.878093 1.900215
v 31.495913 -0.878093 1.748678
v 31.403505 -0.878093 1.575791
v 31.346600 -0.878093 1.388198
v 31.327385 -0.878093 1.193108
v 31.346600 -0.878093 0.998018
v 31.403505 -0.878093 0.810424
v 31.495913 -0.878093 0.637538
v 31.620279 -0.878093 0.486001
v 31.771814 -0.878093 0.361638
v 31.944704 -0.878093 0.269228
v 32.132294 -0.878093 0.212323
v 32.327385 -0.878093 0.193108
vn -1.0000 -0.0000 -0.0000
vn -0.0000 -0.0000 -1.0000
vn 1.0000 -0.0000 -0.0000
vn -0.0000 -0.0000 1.0000
vn -0.0000 -1.0000 -0.0000
vn -0.0000 1.0000 -0.0000
vn 0.0026 -1.0000 -0.0000
vn -1.0000 -0.0011 -0.0000
vn 1.0000 -0.0028 -0.0000
vt 0.375000 0.000000
vt 0.625000 0.000000
vt 0.625000 0.250000
vt 0.375000 0.250000
vt 0.625000 0.500000
vt 0.375000 0.500000
vt 0.625000 0.750000
vt 0.375000 0.750000
vt 0.625000 1.000000
vt 0.375000 1.000000
vt 0.375000 0.950665
vt 0.499520 0.950434
vt 0.499732 0.897201
vt 0.375000 0.897109
vt 0.125000 0.500000
vt 0.227891 0.750000
vt 0.174335 0.750000
vt 0.125000 0.750000
vt 0.875000 0.500000
vt 0.875000 0.750000
s 0
usemtl Material
f 16/1/1 17/2/1 19/3/1 18/4/1
f 18/4/2 19/3/2 23/5/2 22/6/2
f 22/6/3 23/5/3 21/7/3 20/8/3
f 20/8/4 21/7/4 17/9/4 16/10/4 24/11/4 26/12/4 27/13/4 25/14/4
f 18/15/5 22/6/5 20/8/5 25/16/5 24/17/5 16/18/5
f 23/5/6 19/19/6 17/20/6 21/7/6
f 29/14/4 31/13/4 30/12/4 28/11/4
f 27/13/7 26/12/7 30/12/7 31/13/7
f 24/17/6 25/16/6 29/16/6 28/17/6
f 25/14/8 27/13/8 31/13/8 29/14/8
f 26/12/9 24/11/9 28/11/9 30/12/9
l 14 15
l 4 5
l 7 2
l 9 4
l 9 10
l 3 6
l 8 13
l 11 12
l 32 33
l 35 34
l 36 37
l 74 39
l 38 39
l 75 40
l 76 41
l 77 42
l 78 43
l 79 44
l 80 45
l 81 46
l 82 47
l 83 48
l 84 49
l 85 50
l 86 51
l 87 52
l 88 53
l 89 54
l 90 55
l 91 56
l 92 57
l 93 58
l 94 59
l 95 60
l 96 61
l 97 62
l 98 63
l 99 64
l 100 65
l 101 66
l 102 67
l 103 68
l 104 69
l 105 70
l 106 71
l 108 72
l 56 74
l 57 75
l 58 76
l 59 77
l 60 78
l 61 79
l 62 80
l 63 81
l 64 82
l 65 83
l 66 84
l 67 85
l 68 86
l 69 87
l 70 88
l 71 89
l 72 90
l 48 91
l 49 93
l 50 94
l 51 95
l 52 96
l 53 97
l 54 98
l 55 99
l 44 100
l 45 101
l 46 102
l 47 103
l 42 104
l 43 105
l 41 106
l 39 107
l 142 109
l 143 110
l 144 111
l 145 112
l 146 113
l 147 114
l 148 115
l 149 116
l 150 117
l 151 118
l 152 119
l 153 120
l 154 121
l 155 122
l 156 123
l 157 124
l 158 125
l 159 126
l 160 127
l 161 128
l 162 129
l 163 130
l 164 131
l 165 132
l 166 133
l 167 134
l 168 135
l 169 136
l 170 137
l 171 138
l 173 139
l 124 141
l 125 142
l 126 143
l 127 144
l 128 145
l 129 146
l 130 147
l 131 148
l 132 149
l 133 150
l 134 151
l 135 152
l 136 153
l 137 154
l 138 155
l 139 156
l 116 157
l 117 158
l 118 159
l 119 160
l 120 161
l 121 162
l 122 163
l 123 164
l 112 165
l 113 166
l 114 167
l 115 168
l 110 169
l 111 170
l 109 171
l 139 174
l 124 175
l 182 176
l 183 177
l 184 178
l 185 179
l 187 180
l 188 181
l 179 182
l 180 183
l 181 184
l 177 185
l 178 186
l 176 188
l 220 189
l 190 191
l 193 194
l 195 196
l 197 198
l 198 199
l 200 201
l 201 202
l 203 204
l 204 205
l 205 206
l 206 207
l 208 209
l 209 210
l 211 212
l 213 214
l 189 190
l 191 192
l 192 193
l 216 217
l 217 218
l 218 219
l 219 220
l 194 195
l 215 216
l 196 197
l 207 208
l 199 200
l 210 211
l 212 213
l 202 203
l 214 215
