# Blender 4.3.2
# www.blender.org
mtllib House2.mtl
o Cube
v 3.594283 3.843013 -1.466891
v 3.546760 -0.785610 0.876587
v -1.182016 -0.054766 -0.154430
v -1.182016 0.610335 -0.154430
v -1.182016 -0.054766 -1.155789
v -1.182016 0.610335 -1.155789
v 0.836283 -0.054766 -0.154430
v 0.836283 0.610335 -0.154430
v 0.836283 -0.054766 -1.155789
v 0.836283 0.610335 -1.155789
v -1.182016 0.617176 -0.154430
v -0.732952 1.066240 -0.603495
v -1.147833 0.789026 -0.188613
v -1.050488 0.934713 -0.285958
v -0.904801 1.032057 -0.431645
v -0.732952 1.066240 -0.706724
v -1.182016 0.617176 -1.155789
v -0.904801 1.032057 -0.878574
v -1.050488 0.934713 -1.024261
v -1.147833 0.789026 -1.121606
v 0.387218 1.066240 -0.706724
v 0.836283 0.617176 -1.155789
v 0.559068 1.032057 -0.878574
v 0.704755 0.934713 -1.024261
v 0.802099 0.789026 -1.121606
v 0.387218 1.066240 -0.603495
v 0.836283 0.617176 -0.154430
v 0.559068 1.032057 -0.431645
v 0.704755 0.934713 -0.285958
v 0.802100 0.789026 -0.188613
v -0.372630 -0.054766 -0.154430
v -0.070862 -0.054766 -0.154430
v -0.373794 0.305812 -0.154430
v -0.071463 0.306235 -0.154430
v -0.372630 -0.054766 -0.210755
v -0.070862 -0.054766 -0.210755
v -0.373794 0.305812 -0.210755
v -0.071463 0.306235 -0.210755
v -0.372630 -0.054766 -0.349404
v -0.070862 -0.054766 -0.349404
v -0.373794 0.305812 -0.349404
v -0.071463 0.306235 -0.349404
v 19.773367 -1.282842 -1.356856
v 19.773367 -1.282842 0.105137
v 20.849997 -0.516044 -1.356856
v 20.849997 -0.516044 0.105137
v 21.112513 0.283732 -1.356856
v 21.112513 0.283732 0.105137
v 28.138803 -0.678671 -1.228366
v 28.138803 -0.658721 -1.228366
v 28.138803 -0.658721 -0.228366
v 29.138803 -0.658721 -1.228366
v 28.638803 -0.658721 -1.228366
v 29.638803 -0.658721 -1.228366
v 28.388803 -0.658721 -1.228366
v 29.388803 -0.658721 -1.228366
v 28.888803 -0.658721 -1.228366
v 29.888803 -0.658721 -1.228366
v 28.263803 -0.658721 -1.228366
v 29.263803 -0.658721 -1.228366
v 28.763803 -0.658721 -1.228366
v 29.763803 -0.658721 -1.228366
v 28.513803 -0.658721 -1.228366
v 29.513803 -0.658721 -1.228366
v 29.013803 -0.658721 -1.228366
v 30.013803 -0.658721 -1.228366
v 28.201303 -0.658721 -1.228366
v 28.138803 -0.658721 -0.290866
v 29.201303 -0.658721 -1.228366
v 28.701303 -0.658721 -1.228366
v 29.701303 -0.658721 -1.228366
v 28.451303 -0.658721 -1.228366
v 29.451303 -0.658721 -1.228366
v 28.951303 -0.658721 -1.228366
v 29.951303 -0.658721 -1.228366
v 28.326303 -0.658721 -1.228366
v 29.326303 -0.658721 -1.228366
v 28.826303 -0.658721 -1.228366
v 29.826303 -0.658721 -1.228366
v 28.576303 -0.658721 -1.228366
v 29.576303 -0.658721 -1.228366
v 29.076303 -0.658721 -1.228366
v 30.076303 -0.658721 -1.228366
v 28.138803 -0.658721 0.740384
v 28.170053 -0.658721 -1.228366
v 28.138803 -0.658721 -0.259616
v 29.170053 -0.658721 -1.228366
v 28.670053 -0.658721 -1.228366
v 29.670053 -0.658721 -1.228366
v 28.420053 -0.658721 -1.228366
v 29.420053 -0.658721 -1.228366
v 28.920053 -0.658721 -1.228366
v 29.920053 -0.658721 -1.228366
v 28.295053 -0.658721 -1.228366
v 29.295053 -0.658721 -1.228366
v 28.795053 -0.658721 -1.228366
v 29.795053 -0.658721 -1.228366
v 28.545053 -0.658721 -1.228366
v 29.545053 -0.658721 -1.228366
v 29.045053 -0.658721 -1.228366
v 30.045053 -0.658721 -1.228366
v 28.232553 -0.658721 -1.228366
v 28.138803 -0.658721 -0.322116
v 29.232553 -0.658721 -1.228366
v 28.732553 -0.658721 -1.228366
v 29.732553 -0.658721 -1.228366
v 28.482553 -0.658721 -1.228366
v 29.482553 -0.658721 -1.228366
v 28.982553 -0.658721 -1.228366
v 29.982553 -0.658721 -1.228366
v 28.357553 -0.658721 -1.228366
v 29.357553 -0.658721 -1.228366
v 28.857553 -0.658721 -1.228366
v 29.857553 -0.658721 -1.228366
v 28.607553 -0.658721 -1.228366
v 29.607553 -0.658721 -1.228366
v 29.107553 -0.658721 -1.228366
v 28.138803 -0.658721 -1.197116
v 30.107553 -0.658721 -1.228366
v 34.762123 -0.623510 -0.865759
v 32.430134 -0.658721 -0.228366
v 32.430134 -0.658721 -0.728366
v 32.430134 -0.658721 0.271634
v 32.430134 -0.658721 -0.978366
v 32.430134 -0.658721 0.021634
v 32.430134 -0.658721 -0.478366
v 32.430134 -0.658721 0.521634
v 32.430134 -0.658721 -1.103366
v 32.430134 -0.658721 -0.103366
v 32.430134 -0.658721 -0.603366
v 32.430134 -0.658721 0.396634
v 32.430134 -0.658721 -0.853366
v 32.430134 -0.658721 0.146634
v 32.430134 -0.658721 -0.353366
v 32.430134 -0.658721 0.646634
v 32.430134 -0.658721 -1.165866
v 32.430134 -0.658721 -0.165866
v 32.430134 -0.658721 -0.665866
v 32.430134 -0.658721 0.334134
v 32.430134 -0.658721 -0.915866
v 32.430134 -0.658721 0.084134
v 32.430134 -0.658721 -0.415866
v 32.430134 -0.658721 0.584134
v 32.430134 -0.658721 -1.040866
v 32.430134 -0.658721 -0.040866
v 32.430134 -0.658721 -0.540866
v 32.430134 -0.658721 0.459134
v 32.430134 -0.658721 -0.790866
v 32.430134 -0.658721 0.209134
v 32.430134 -0.658721 -0.290866
v 32.430134 -0.658721 0.709134
v 30.430136 -0.658721 0.740384
v 32.430134 -0.658721 -1.197116
v 32.430134 -0.658721 -0.197116
v 32.430134 -0.658721 -0.697116
v 32.430134 -0.658721 0.302884
v 32.430134 -0.658721 -0.947116
v 32.430134 -0.658721 0.052884
v 32.430134 -0.658721 -0.447116
v 32.430134 -0.658721 0.552884
v 32.430134 -0.658721 -1.072116
v 32.430134 -0.658721 -0.072116
v 32.430134 -0.658721 -0.572116
v 32.430134 -0.658721 0.427884
v 32.430134 -0.658721 -0.822116
v 32.430134 -0.658721 0.177884
v 32.430134 -0.658721 -0.322116
v 32.430134 -0.658721 0.677884
v 32.430134 -0.658721 -1.134616
v 32.430134 -0.658721 -0.134616
v 32.430134 -0.658721 -0.634616
v 32.430134 -0.658721 0.365384
v 32.430134 -0.658721 -0.884616
v 32.430134 -0.658721 0.115384
v 32.430134 -0.658721 -0.384616
v 32.430134 -0.658721 0.615384
v 32.430134 -0.658721 -1.009616
v 32.430134 -0.658721 -0.009616
v 32.430134 -0.658721 -0.509616
v 32.430134 -0.658721 0.490384
v 32.430134 -0.658721 -0.759616
v 32.430134 -0.658721 0.240384
v 32.430134 -0.658721 -0.259616
v 30.430136 -0.658721 -1.197116
v 32.430134 -0.658721 0.740384
v 32.398884 -0.658721 0.709134
v 32.398884 -0.658721 -1.165866
v 32.677120 -0.658721 -0.228366
v 32.677120 -0.658721 -0.353366
v 32.677120 -0.658721 -0.103366
v 32.677120 -0.658721 -0.290866
v 32.677120 -0.658721 -0.415866
v 32.677120 -0.658721 -0.165866
v 32.677120 -0.658721 -0.259616
v 32.677120 -0.658721 -0.384616
v 32.677120 -0.658721 -0.134616
v 32.677120 -0.658721 -0.322116
v 32.677120 -0.658721 -0.072116
v 32.677120 -0.658721 -0.447116
v 32.677120 -0.658721 -0.197116
v 34.764866 -0.652380 0.759778
v 32.522476 -0.878093 0.212323
v 32.710068 -0.878093 0.269228
v 32.882957 -0.878093 0.361638
v 33.034492 -0.878093 0.486001
v 33.158852 -0.878093 0.637538
v 33.251266 -0.878093 0.810424
v 33.308167 -0.878093 0.998018
v 33.327385 -0.878093 1.193108
v 33.308167 -0.878093 1.388198
v 33.251266 -0.878093 1.575791
v 33.158852 -0.878093 1.748678
v 33.034492 -0.878093 1.900215
v 32.882957 -0.878093 2.024578
v 32.710068 -0.878093 2.116987
v 32.522476 -0.878093 2.173893
v 32.327385 -0.878093 2.193108
v 32.132294 -0.878093 2.173893
v 31.944704 -0.878093 2.116987
v 31.771814 -0.878093 2.024578
v 31.620279 -0.878093 1.900215
v 31.495913 -0.878093 1.748678
v 31.403505 -0.878093 1.575791
v 31.346600 -0.878093 1.388198
v 31.327385 -0.878093 1.193108
v 31.346600 -0.878093 0.998018
v 31.403505 -0.878093 0.810424
v 31.495913 -0.878093 0.637538
v 31.620279 -0.878093 0.486001
v 31.771814 -0.878093 0.361638
v 31.944704 -0.878093 0.269228
v 32.132294 -0.878093 0.212323
v 32.327385 -0.878093 0.193108
vn -1.0000 -0.0000 -0.0000
vn -0.0000 -0.0000 -1.0000
vn 1.0000 -0.0000 -0.0000
vn -0.0000 -0.0000 1.0000
vn -0.0000 -1.0000 -0.0000
vn -0.0000 1.0000 -0.0000
vn -0.1951 0.9808 -0.0000
vn -0.5556 0.8315 -0.0000
vn -0.8315 0.5556 -0.0000
vn -0.9808 0.1951 -0.0000
vn -0.0000 0.9808 -0.1951
vn -0.0000 0.8315 -0.5556
vn -0.0000 0.5556 -0.8315
vn -0.0000 0.1951 -0.9808
vn 0.1951 0.9808 -0.0000
vn 0.5556 0.8315 -0.0000
vn 0.8315 0.5556 -0.0000
vn 0.9808 0.1951 -0.0000
vn -0.0000 0.9808 0.1951
vn -0.0000 0.8315 0.5556
vn -0.0000 0.5556 0.8315
vn -0.0000 0.1951 0.9808
vn 0.0014 -1.0000 -0.0000
vn -1.0000 -0.0017 -0.0000
vn 1.0000 0.0032 -0.0000
vt 0.375000 0.000000
vt 0.625000 0.000000
vt 0.625000 0.250000
vt 0.375000 0.250000
vt 0.625000 0.500000
vt 0.375000 0.500000
vt 0.625000 0.750000
vt 0.375000 0.750000
vt 0.625000 1.000000
vt 0.375000 1.000000
vt 0.375000 0.899744
vt 0.510535 0.899888
vt 0.510694 0.862439
vt 0.375000 0.862365
vt 0.125000 0.500000
vt 0.262635 0.750000
vt 0.225256 0.750000
vt 0.125000 0.750000
vt 0.680624 0.612114
vt 0.819376 0.612114
vt 0.819376 0.637886
vt 0.680624 0.637886
vt 0.840662 0.569210
vt 0.840662 0.680790
vt 0.875000 0.532837
vt 0.875000 0.717163
vt 0.625000 0.032837
vt 0.625000 0.217163
vt 0.625000 0.241466
vt 0.625000 0.008534
vt 0.659338 0.569210
vt 0.641292 0.500000
vt 0.858708 0.500000
vt 0.625000 0.266292
vt 0.625000 0.483708
vt 0.625000 0.495766
vt 0.625000 0.254234
vt 0.659338 0.680790
vt 0.625000 0.717163
vt 0.625000 0.532837
vt 0.625000 0.741466
vt 0.625000 0.508534
vt 0.858708 0.750000
vt 0.641292 0.750000
vt 0.625000 0.766292
vt 0.625000 0.983708
vt 0.625000 0.995766
vt 0.625000 0.754234
s 0
usemtl Material
f 3/1/1 4/2/1 6/3/1 5/4/1
f 5/4/2 6/3/2 10/5/2 9/6/2
f 9/6/3 10/5/3 8/7/3 7/8/3
f 7/8/4 8/7/4 4/9/4 3/10/4 31/11/4 33/12/4 34/13/4 32/14/4
f 5/15/5 9/6/5 7/8/5 32/16/5 31/17/5 3/18/5
f 4/9/4 8/7/4 27/7/4 11/9/4
f 21/19/6 16/20/6 12/21/6 26/22/6
f 10/5/2 6/3/2 17/3/2 22/5/2
f 8/7/3 10/5/3 22/5/3 27/7/3
f 12/21/7 16/20/7 18/23/7 15/24/7
f 15/24/8 18/23/8 19/25/8 14/26/8
f 14/27/9 19/28/9 20/29/9 13/30/9
f 13/30/10 20/29/10 17/3/10 11/2/10
f 16/20/11 21/19/11 23/31/11 18/23/11
f 18/23/12 23/31/12 24/32/12 19/33/12
f 19/34/13 24/35/13 25/36/13 20/37/13
f 20/37/14 25/36/14 22/5/14 17/3/14
f 21/19/15 26/22/15 28/38/15 23/31/15
f 23/31/16 28/38/16 29/39/16 24/40/16
f 24/40/17 29/39/17 30/41/17 25/42/17
f 25/42/18 30/41/18 27/7/18 22/5/18
f 26/22/19 12/21/19 15/24/19 28/38/19
f 28/38/20 15/24/20 14/43/20 29/44/20
f 29/45/21 14/46/21 13/47/21 30/48/21
f 30/48/22 13/47/22 11/9/22 27/7/22
f 6/3/1 4/2/1 11/2/1 17/3/1
f 38/13/23 37/12/23 41/12/23 42/13/23
f 31/17/6 32/16/6 36/16/6 35/17/6
f 32/14/24 34/13/24 38/13/24 36/14/24
f 33/12/25 31/11/25 35/11/25 37/12/25
f 34/13/23 33/12/23 37/12/23 38/13/23
f 40/14/4 42/13/4 41/12/4 39/11/4
f 35/17/6 36/16/6 40/16/6 39/17/6
f 36/14/24 38/13/24 42/13/24 40/14/24
f 37/12/25 35/11/25 39/11/25 41/12/25
l 43 44
l 46 45
l 47 48
l 85 50
l 49 50
l 86 51
l 87 52
l 88 53
l 89 54
l 90 55
l 91 56
l 92 57
l 93 58
l 94 59
l 95 60
l 96 61
l 97 62
l 98 63
l 99 64
l 100 65
l 101 66
l 102 67
l 103 68
l 104 69
l 105 70
l 106 71
l 107 72
l 108 73
l 109 74
l 110 75
l 111 76
l 112 77
l 113 78
l 114 79
l 115 80
l 116 81
l 117 82
l 119 83
l 67 85
l 68 86
l 69 87
l 70 88
l 71 89
l 72 90
l 73 91
l 74 92
l 75 93
l 76 94
l 77 95
l 78 96
l 79 97
l 80 98
l 81 99
l 82 100
l 83 101
l 59 102
l 60 104
l 61 105
l 62 106
l 63 107
l 64 108
l 65 109
l 66 110
l 55 111
l 56 112
l 57 113
l 58 114
l 53 115
l 54 116
l 52 117
l 50 118
l 154 121
l 155 122
l 156 123
l 157 124
l 158 125
l 159 126
l 160 127
l 161 128
l 162 129
l 163 130
l 164 131
l 165 132
l 166 133
l 167 134
l 168 135
l 169 136
l 170 137
l 171 138
l 172 139
l 173 140
l 174 141
l 175 142
l 176 143
l 177 144
l 178 145
l 179 146
l 180 147
l 181 148
l 182 149
l 183 150
l 185 151
l 136 153
l 137 154
l 138 155
l 139 156
l 140 157
l 141 158
l 142 159
l 143 160
l 144 161
l 145 162
l 146 163
l 147 164
l 148 165
l 149 166
l 150 167
l 151 168
l 128 169
l 129 170
l 130 171
l 131 172
l 132 173
l 133 174
l 134 175
l 135 176
l 124 177
l 125 178
l 126 179
l 127 180
l 122 181
l 123 182
l 121 183
l 151 186
l 136 187
l 194 188
l 195 189
l 196 190
l 197 191
l 199 192
l 200 193
l 191 194
l 192 195
l 193 196
l 189 197
l 190 198
l 188 200
l 233 202
l 203 204
l 206 207
l 208 209
l 210 211
l 211 212
l 213 214
l 214 215
l 216 217
l 217 218
l 218 219
l 219 220
l 221 222
l 222 223
l 224 225
l 226 227
l 202 203
l 204 205
l 205 206
l 229 230
l 230 231
l 231 232
l 232 233
l 207 208
l 228 229
l 209 210
l 220 221
l 212 213
l 223 224
l 225 226
l 215 216
l 227 228
