# Blender 4.3.2
# www.blender.org
mtllib House1.mtl
o Cube
v 3.594283 3.843013 -1.466891
v 3.546760 -0.785610 0.876587
v -1.150840 -0.138882 0.333224
v 0.061530 -0.138882 0.333224
v -1.150840 -0.138882 -0.526326
v 0.061530 -0.138882 -0.526326
v -1.150840 0.436511 -0.526326
v -1.150840 0.436511 0.333224
v 0.061530 0.436511 0.333224
v 0.061530 0.436511 -0.526326
v -1.150840 0.436511 -0.526326
v -0.582184 0.937457 -0.526326
v -1.107554 0.628215 -0.526326
v -0.984285 0.790734 -0.526326
v -0.799799 0.899325 -0.526326
v -0.582184 0.937457 0.333224
v -1.150840 0.436511 0.333224
v -0.799799 0.899325 0.333224
v -0.984285 0.790734 0.333224
v -1.107554 0.628215 0.333224
v 0.061530 0.436511 0.333224
v -0.507126 0.937457 0.333224
v 0.018243 0.628215 0.333224
v -0.105026 0.790734 0.333224
v -0.289511 0.899325 0.333224
v -0.507126 0.937457 -0.526326
v 0.061530 0.436511 -0.526326
v -0.289511 0.899325 -0.526326
v -0.105026 0.790734 -0.526326
v 0.018243 0.628215 -0.526326
v -0.735804 -0.138882 0.333224
v -0.369295 -0.138882 0.333224
v -0.735189 0.087353 0.333224
v -0.374688 0.089178 0.333224
v -0.735804 -0.138882 0.337225
v -0.369295 -0.138882 0.337225
v -0.735189 0.087353 0.337225
v -0.374688 0.089178 0.337225
v -0.735804 -0.138882 0.346344
v -0.369295 -0.138882 0.346344
v -0.735189 0.087353 0.346344
v -0.374688 0.089178 0.346344
v -1.041222 0.345918 0.333224
v -0.810493 0.345780 0.333224
v -0.810847 0.218393 0.333224
v -1.041008 0.218559 0.333224
v -1.041222 0.345918 0.296791
v -0.810493 0.345780 0.296791
v -0.810847 0.218393 0.296791
v -1.041008 0.218559 0.296791
v -0.310842 0.342367 0.333224
v -0.052495 0.345702 0.333224
v -0.049192 0.224123 0.333224
v -0.307242 0.218580 0.333224
v -0.310842 0.342367 0.292391
v -0.052495 0.345702 0.292391
v -0.049192 0.224123 0.292391
v -0.307242 0.218580 0.292391
v -0.703625 0.080541 0.333199
v -0.703366 0.081007 0.351627
v -0.727248 0.037922 0.334607
v -0.726989 0.038388 0.353035
v -0.378672 -0.086830 0.334914
v -0.378414 -0.086364 0.353342
v -0.402295 -0.129450 0.336323
v -0.402037 -0.128984 0.354750
v -0.734787 -0.109019 0.343431
v -0.734507 -0.108969 0.361470
v -0.393901 0.093569 0.338636
v -0.393622 0.093619 0.356676
v -0.708788 -0.152771 0.343151
v -0.708509 -0.152721 0.361190
v -0.367903 0.049817 0.338356
v -0.367624 0.049868 0.356395
v -0.942913 0.218496 0.331850
v -0.942821 0.345258 0.331850
v -0.942913 0.218496 0.297180
v -0.942821 0.345258 0.297180
v -0.912771 0.218461 0.331850
v -0.912679 0.345223 0.331850
v -0.912771 0.218461 0.297180
v -0.912679 0.345223 0.297180
v -1.041080 0.262017 0.332154
v -0.810139 0.262403 0.332154
v -1.041125 0.289613 0.332154
v -0.810184 0.289999 0.332154
v -1.041080 0.262017 0.298733
v -0.810139 0.262403 0.298733
v -1.041125 0.289613 0.298733
v -0.810184 0.289999 0.298733
v -0.192729 0.221039 0.332062
v -0.195372 0.344136 0.332062
v -0.192729 0.221039 0.292776
v -0.195372 0.344136 0.292776
v -0.158270 0.221780 0.332062
v -0.160914 0.344876 0.332062
v -0.158270 0.221780 0.292776
v -0.160914 0.344876 0.292776
v -0.308732 0.269804 0.332832
v -0.049575 0.277340 0.332832
v -0.309343 0.290836 0.332832
v -0.050187 0.298372 0.332832
v -0.308732 0.269804 0.293910
v -0.049575 0.277340 0.293909
v -0.309343 0.290836 0.293910
v -0.050187 0.298372 0.293909
v 19.773367 -1.282842 -1.356856
v 19.773367 -1.282842 0.105137
v 20.849997 -0.516044 -1.356856
v 20.849997 -0.516044 0.105137
v 21.112513 0.283732 -1.356856
v 21.112513 0.283732 0.105137
v 28.138803 -0.678671 -1.228366
v 28.138803 -0.658721 -1.228366
v 28.138803 -0.658721 -0.228366
v 29.138803 -0.658721 -1.228366
v 28.638803 -0.658721 -1.228366
v 29.638803 -0.658721 -1.228366
v 28.388803 -0.658721 -1.228366
v 29.388803 -0.658721 -1.228366
v 28.888803 -0.658721 -1.228366
v 29.888803 -0.658721 -1.228366
v 28.263803 -0.658721 -1.228366
v 29.263803 -0.658721 -1.228366
v 28.763803 -0.658721 -1.228366
v 29.763803 -0.658721 -1.228366
v 28.513803 -0.658721 -1.228366
v 29.513803 -0.658721 -1.228366
v 29.013803 -0.658721 -1.228366
v 30.013803 -0.658721 -1.228366
v 28.201303 -0.658721 -1.228366
v 28.138803 -0.658721 -0.290866
v 29.201303 -0.658721 -1.228366
v 28.701303 -0.658721 -1.228366
v 29.701303 -0.658721 -1.228366
v 28.451303 -0.658721 -1.228366
v 29.451303 -0.658721 -1.228366
v 28.951303 -0.658721 -1.228366
v 29.951303 -0.658721 -1.228366
v 28.326303 -0.658721 -1.228366
v 29.326303 -0.658721 -1.228366
v 28.826303 -0.658721 -1.228366
v 29.826303 -0.658721 -1.228366
v 28.576303 -0.658721 -1.228366
v 29.576303 -0.658721 -1.228366
v 29.076303 -0.658721 -1.228366
v 30.076303 -0.658721 -1.228366
v 28.138803 -0.658721 0.740384
v 28.170053 -0.658721 -1.228366
v 28.138803 -0.658721 -0.259616
v 29.170053 -0.658721 -1.228366
v 28.670053 -0.658721 -1.228366
v 29.670053 -0.658721 -1.228366
v 28.420053 -0.658721 -1.228366
v 29.420053 -0.658721 -1.228366
v 28.920053 -0.658721 -1.228366
v 29.920053 -0.658721 -1.228366
v 28.295053 -0.658721 -1.228366
v 29.295053 -0.658721 -1.228366
v 28.795053 -0.658721 -1.228366
v 29.795053 -0.658721 -1.228366
v 28.545053 -0.658721 -1.228366
v 29.545053 -0.658721 -1.228366
v 29.045053 -0.658721 -1.228366
v 30.045053 -0.658721 -1.228366
v 28.232553 -0.658721 -1.228366
v 28.138803 -0.658721 -0.322116
v 29.232553 -0.658721 -1.228366
v 28.732553 -0.658721 -1.228366
v 29.732553 -0.658721 -1.228366
v 28.482553 -0.658721 -1.228366
v 29.482553 -0.658721 -1.228366
v 28.982553 -0.658721 -1.228366
v 29.982553 -0.658721 -1.228366
v 28.357553 -0.658721 -1.228366
v 29.357553 -0.658721 -1.228366
v 28.857553 -0.658721 -1.228366
v 29.857553 -0.658721 -1.228366
v 28.607553 -0.658721 -1.228366
v 29.607553 -0.658721 -1.228366
v 29.107553 -0.658721 -1.228366
v 28.138803 -0.658721 -1.197116
v 30.107553 -0.658721 -1.228366
v 32.430134 -0.658721 -0.228366
v 32.430134 -0.658721 -0.728366
v 32.430134 -0.658721 0.271634
v 32.430134 -0.658721 -0.978366
v 32.430134 -0.658721 0.021634
v 32.430134 -0.658721 -0.478366
v 32.430134 -0.658721 0.521634
v 32.430134 -0.658721 -1.103366
v 32.430134 -0.658721 -0.103366
v 32.430134 -0.658721 -0.603366
v 32.430134 -0.658721 0.396634
v 32.430134 -0.658721 -0.853366
v 32.430134 -0.658721 0.146634
v 32.430134 -0.658721 -0.353366
v 32.430134 -0.658721 0.646634
v 32.430134 -0.658721 -1.165866
v 32.430134 -0.658721 -0.165866
v 32.430134 -0.658721 -0.665866
v 32.430134 -0.658721 0.334134
v 32.430134 -0.658721 -0.915866
v 32.430134 -0.658721 0.084134
v 32.430134 -0.658721 -0.415866
v 32.430134 -0.658721 0.584134
v 32.430134 -0.658721 -1.040866
v 32.430134 -0.658721 -0.040866
v 32.430134 -0.658721 -0.540866
v 32.430134 -0.658721 0.459134
v 32.430134 -0.658721 -0.790866
v 32.430134 -0.658721 0.209134
v 32.430134 -0.658721 -0.290866
v 32.430134 -0.658721 0.709134
v 30.430136 -0.658721 0.740384
v 32.430134 -0.658721 -1.197116
v 32.430134 -0.658721 -0.197116
v 32.430134 -0.658721 -0.697116
v 32.430134 -0.658721 0.302884
v 32.430134 -0.658721 -0.947116
v 32.430134 -0.658721 0.052884
v 32.430134 -0.658721 -0.447116
v 32.430134 -0.658721 0.552884
v 32.430134 -0.658721 -1.072116
v 32.430134 -0.658721 -0.072116
v 32.430134 -0.658721 -0.572116
v 32.430134 -0.658721 0.427884
v 32.430134 -0.658721 -0.822116
v 32.430134 -0.658721 0.177884
v 32.430134 -0.658721 -0.322116
v 32.430134 -0.658721 0.677884
v 32.430134 -0.658721 -1.134616
v 32.430134 -0.658721 -0.134616
v 32.430134 -0.658721 -0.634616
v 32.430134 -0.658721 0.365384
v 32.430134 -0.658721 -0.884616
v 32.430134 -0.658721 0.115384
v 32.430134 -0.658721 -0.384616
v 32.430134 -0.658721 0.615384
v 32.430134 -0.658721 -1.009616
v 32.430134 -0.658721 -0.009616
v 32.430134 -0.658721 -0.509616
v 32.430134 -0.658721 0.490384
v 32.430134 -0.658721 -0.759616
v 32.430134 -0.658721 0.240384
v 32.430134 -0.658721 -0.259616
v 30.430136 -0.658721 -1.197116
v 32.430134 -0.658721 0.740384
v 32.398884 -0.658721 0.709134
v 32.398884 -0.658721 -1.165866
v 32.677120 -0.658721 -0.228366
v 32.677120 -0.658721 -0.353366
v 32.677120 -0.658721 -0.103366
v 32.677120 -0.658721 -0.290866
v 32.677120 -0.658721 -0.415866
v 32.677120 -0.658721 -0.165866
v 32.677120 -0.658721 -0.259616
v 32.677120 -0.658721 -0.384616
v 32.677120 -0.658721 -0.134616
v 32.677120 -0.658721 -0.322116
v 32.677120 -0.658721 -0.072116
v 32.677120 -0.658721 -0.447116
v 32.677120 -0.658721 -0.197116
v 32.522476 -0.878093 0.212323
v 32.710068 -0.878093 0.269228
v 32.882957 -0.878093 0.361638
v 33.034492 -0.878093 0.486001
v 33.158852 -0.878093 0.637538
v 33.251266 -0.878093 0.810424
v 33.308167 -0.878093 0.998018
v 33.327385 -0.878093 1.193108
v 33.308167 -0.878093 1.388198
v 33.251266 -0.878093 1.575791
v 33.158852 -0.878093 1.748678
v 33.034492 -0.878093 1.900215
v 32.882957 -0.878093 2.024578
v 32.710068 -0.878093 2.116987
v 32.522476 -0.878093 2.173893
v 32.327385 -0.878093 2.193108
v 32.132294 -0.878093 2.173893
v 31.944704 -0.878093 2.116987
v 31.771814 -0.878093 2.024578
v 31.620279 -0.878093 1.900215
v 31.495913 -0.878093 1.748678
v 31.403505 -0.878093 1.575791
v 31.346600 -0.878093 1.388198
v 31.327385 -0.878093 1.193108
v 31.346600 -0.878093 0.998018
v 31.403505 -0.878093 0.810424
v 31.495913 -0.878093 0.637538
v 31.620279 -0.878093 0.486001
v 31.771814 -0.878093 0.361638
v 31.944704 -0.878093 0.269228
v 32.132294 -0.878093 0.212323
v 32.327385 -0.878093 0.193108
vn -0.0000 -1.0000 -0.0000
vn -0.0000 1.0000 -0.0000
vn -0.0000 -0.0000 -1.0000
vn -0.0000 -0.0000 1.0000
vn 1.0000 -0.0000 -0.0000
vn -1.0000 -0.0000 -0.0000
vn -0.9754 0.2203 -0.0000
vn -0.7967 0.6043 -0.0000
vn -0.5073 0.8618 -0.0000
vn -0.1726 0.9850 -0.0000
vn 0.9754 0.2203 -0.0000
vn 0.7967 0.6043 -0.0000
vn 0.5073 0.8618 -0.0000
vn 0.1726 0.9850 -0.0000
vn 0.9997 0.0236 -0.0000
vn -0.0051 1.0000 -0.0000
vn -1.0000 0.0027 -0.0000
vn 1.0000 0.0017 -0.0000
vn -1.0000 0.0028 -0.0000
vn 0.0007 1.0000 -0.0000
vn -0.0006 -1.0000 -0.0000
vn -0.0215 0.9998 -0.0000
vn 0.0129 -0.9999 -0.0000
vn 0.9996 0.0291 -0.0000
vn -0.9996 -0.0272 -0.0000
vn 0.0091 0.0280 0.9996
vn 0.4578 0.8886 -0.0289
vn 0.8746 -0.4848 -0.0000
vn -0.4578 -0.8886 0.0289
vn -0.0091 -0.0280 -0.9996
vn -0.8746 0.4848 -0.0000
vn -0.5108 0.8597 0.0055
vn 0.8595 0.5108 -0.0147
vn 0.5108 -0.8597 -0.0055
vn -0.8595 -0.5108 0.0147
vn -0.0132 -0.0014 -0.9999
vn 0.0132 0.0014 0.9999
vn -1.0000 0.0007 -0.0000
vn 1.0000 -0.0007 -0.0000
vn -0.0012 -1.0000 -0.0000
vn 0.0012 1.0000 -0.0000
vn -0.0017 1.0000 -0.0000
vn 0.0017 -1.0000 -0.0000
vn -1.0000 -0.0017 -0.0000
vn -0.9998 -0.0215 -0.0000
vn 0.9998 0.0215 -0.0000
vn 0.0215 -0.9998 -0.0000
vn -0.0291 0.9996 -0.0000
vn 0.0291 -0.9996 -0.0000
vn -0.9996 -0.0291 -0.0000
vt 1.106279 0.296303
vt 1.106279 1.296303
vt 2.106279 1.296303
vt 2.106279 0.296303
vt 1.750922 0.296303
vt 1.448614 0.296303
vt 1.449121 0.296303
vt 1.746473 0.296303
vt 2.014953 0.296303
vt 1.802105 0.296303
vt 1.799136 0.296303
vt 1.387009 0.296303
vt 1.386716 0.296303
vt 1.196872 0.296303
vt 1.196696 0.296303
vt 1.118181 1.296303
vt 1.152073 1.296303
vt 1.395829 1.296303
vt 1.575324 1.296303
vt 1.637234 1.296303
vt 1.816730 1.296303
vt 2.060486 1.296303
vt 2.094378 1.296303
vt 1.575324 0.296303
vt 1.637234 0.296303
vt 2.094378 0.296303
vt 2.060486 0.296303
vt 1.816730 0.296303
vt 1.395829 0.296303
vt 1.152073 0.296303
vt 1.118181 0.296303
vt 2.012228 0.296303
vt 0.375000 0.000000
vt 0.625000 0.000000
vt 0.625000 0.250000
vt 0.375000 0.250000
vt 0.625000 0.500000
vt 0.375000 0.500000
vt 0.625000 0.750000
vt 0.375000 0.750000
vt 0.625000 1.000000
vt 0.375000 1.000000
vt 0.125000 0.500000
vt 0.125000 0.750000
vt 0.875000 0.500000
vt 0.875000 0.750000
s 0
usemtl Material
f 3/1/1 5/2/1 6/3/1 4/4/1 32/5/1 31/6/1
f 9/4/2 10/3/2 27/3/2 21/4/2
f 6/3/3 5/2/3 7/2/3 10/3/3
f 3/1/4 31/6/4 33/7/4 34/8/4 32/5/4 4/4/4 9/4/4 53/9/4 54/10/4 51/11/4 44/12/4 45/13/4 46/14/4 43/15/4 8/1/4
f 4/4/5 6/3/5 10/3/5 9/4/5
f 5/2/6 3/1/6 8/1/6 7/2/6
f 10/3/3 7/2/3 11/2/3 13/16/3 14/17/3 15/18/3 12/19/3 26/20/3 28/21/3 29/22/3 30/23/3 27/3/3
f 16/24/2 22/25/2 26/20/2 12/19/2
f 8/1/4 9/4/4 21/4/4 23/26/4 24/27/4 25/28/4 22/25/4 16/24/4 18/29/4 19/30/4 20/31/4 17/1/4
f 11/2/7 17/1/7 20/31/7 13/16/7
f 13/16/8 20/31/8 19/30/8 14/17/8
f 14/17/9 19/30/9 18/29/9 15/18/9
f 15/18/10 18/29/10 16/24/10 12/19/10
f 21/4/11 27/3/11 30/23/11 23/26/11
f 23/26/12 30/23/12 29/22/12 24/27/12
f 24/27/13 29/22/13 28/21/13 25/28/13
f 25/28/14 28/21/14 26/20/14 22/25/14
f 7/2/2 8/1/2 17/1/2 11/2/2
f 32/5/15 34/8/15 38/8/15 36/5/15
f 38/8/16 37/7/16 41/7/16 42/8/16
f 33/7/17 31/6/17 35/6/17 37/7/17
f 34/8/16 33/7/16 37/7/16 38/8/16
f 31/6/1 32/5/1 36/5/1 35/6/1
f 40/5/4 42/8/4 41/7/4 39/6/4
f 35/6/1 36/5/1 40/5/1 39/6/1
f 36/5/15 38/8/15 42/8/15 40/5/15
f 37/7/17 35/6/17 39/6/17 41/7/17
f 47/15/4 50/14/4 49/13/4 48/12/4
f 8/1/4 43/15/4 44/12/4 9/4/4
f 43/15/18 46/14/18 50/14/18 47/15/18
f 45/13/19 44/12/19 48/12/19 49/13/19
f 46/14/20 45/13/20 49/13/20 50/14/20
f 44/12/21 43/15/21 47/15/21 48/12/21
f 56/32/4 55/11/4 58/10/4 57/9/4
f 44/12/4 51/11/4 52/32/4 53/9/4 9/4/4
f 54/10/22 53/9/22 57/9/22 58/10/22
f 52/32/23 51/11/23 55/11/23 56/32/23
f 51/11/24 54/10/24 58/10/24 55/11/24
f 53/9/25 52/32/25 56/32/25 57/9/25
f 64/33/26 60/34/26 62/35/26 66/36/26
f 64/36/27 63/35/27 59/37/27 60/38/27
f 66/38/28 65/37/28 63/39/28 64/40/28
f 62/40/29 61/39/29 65/41/29 66/42/29
f 59/43/30 63/38/30 65/40/30 61/44/30
f 60/37/31 59/45/31 61/46/31 62/39/31
f 67/33/32 68/34/32 70/35/32 69/36/32
f 69/36/33 70/35/33 74/37/33 73/38/33
f 73/38/34 74/37/34 72/39/34 71/40/34
f 71/40/35 72/39/35 68/41/35 67/42/35
f 69/43/36 73/38/36 71/40/36 67/44/36
f 74/37/37 70/45/37 68/46/37 72/39/37
f 75/33/38 76/34/38 78/35/38 77/36/38
f 77/36/3 78/35/3 82/37/3 81/38/3
f 81/38/39 82/37/39 80/39/39 79/40/39
f 79/40/4 80/39/4 76/41/4 75/42/4
f 77/43/40 81/38/40 79/40/40 75/44/40
f 82/37/41 78/45/41 76/46/41 80/39/41
f 83/33/4 84/34/4 86/35/4 85/36/4
f 85/36/42 86/35/42 90/37/42 89/38/42
f 89/38/3 90/37/3 88/39/3 87/40/3
f 87/40/43 88/39/43 84/41/43 83/42/43
f 85/43/44 89/38/44 87/40/44 83/44/44
f 90/37/18 86/45/18 84/46/18 88/39/18
f 91/33/45 92/34/45 94/35/45 93/36/45
f 93/36/3 94/35/3 98/37/3 97/38/3
f 97/38/46 98/37/46 96/39/46 95/40/46
f 95/40/4 96/39/4 92/41/4 91/42/4
f 93/43/47 97/38/47 95/40/47 91/44/47
f 98/37/22 94/45/22 92/46/22 96/39/22
f 99/33/4 100/34/4 102/35/4 101/36/4
f 101/36/48 102/35/48 106/37/48 105/38/48
f 105/38/3 106/37/3 104/39/3 103/40/3
f 103/40/49 104/39/49 100/41/49 99/42/49
f 101/43/50 105/38/50 103/40/50 99/44/50
f 106/37/24 102/45/24 100/46/24 104/39/24
l 107 108
l 110 109
l 111 112
l 149 114
l 113 114
l 150 115
l 151 116
l 152 117
l 153 118
l 154 119
l 155 120
l 156 121
l 157 122
l 158 123
l 159 124
l 160 125
l 161 126
l 162 127
l 163 128
l 164 129
l 165 130
l 166 131
l 167 132
l 168 133
l 169 134
l 170 135
l 171 136
l 172 137
l 173 138
l 174 139
l 175 140
l 176 141
l 177 142
l 178 143
l 179 144
l 180 145
l 181 146
l 183 147
l 131 149
l 132 150
l 133 151
l 134 152
l 135 153
l 136 154
l 137 155
l 138 156
l 139 157
l 140 158
l 141 159
l 142 160
l 143 161
l 144 162
l 145 163
l 146 164
l 147 165
l 123 166
l 124 168
l 125 169
l 126 170
l 127 171
l 128 172
l 129 173
l 130 174
l 119 175
l 120 176
l 121 177
l 122 178
l 117 179
l 118 180
l 116 181
l 114 182
l 217 184
l 218 185
l 219 186
l 220 187
l 221 188
l 222 189
l 223 190
l 224 191
l 225 192
l 226 193
l 227 194
l 228 195
l 229 196
l 230 197
l 231 198
l 232 199
l 233 200
l 234 201
l 235 202
l 236 203
l 237 204
l 238 205
l 239 206
l 240 207
l 241 208
l 242 209
l 243 210
l 244 211
l 245 212
l 246 213
l 248 214
l 199 216
l 200 217
l 201 218
l 202 219
l 203 220
l 204 221
l 205 222
l 206 223
l 207 224
l 208 225
l 209 226
l 210 227
l 211 228
l 212 229
l 213 230
l 214 231
l 191 232
l 192 233
l 193 234
l 194 235
l 195 236
l 196 237
l 197 238
l 198 239
l 187 240
l 188 241
l 189 242
l 190 243
l 185 244
l 186 245
l 184 246
l 214 249
l 199 250
l 257 251
l 258 252
l 259 253
l 260 254
l 262 255
l 263 256
l 254 257
l 255 258
l 256 259
l 252 260
l 253 261
l 251 263
l 295 264
l 265 266
l 268 269
l 270 271
l 272 273
l 273 274
l 275 276
l 276 277
l 278 279
l 279 280
l 280 281
l 281 282
l 283 284
l 284 285
l 286 287
l 288 289
l 264 265
l 266 267
l 267 268
l 291 292
l 292 293
l 293 294
l 294 295
l 269 270
l 290 291
l 271 272
l 282 283
l 274 275
l 285 286
l 287 288
l 277 278
l 289 290
