# Blender 4.3.2
# www.blender.org
mtllib House3.mtl
o Cube
v 3.594283 3.843013 -1.466891
v 3.546760 -0.785610 0.876587
v -0.488841 -0.091141 0.283640
v -0.488841 0.550774 0.283640
v -0.488841 -0.091141 -0.901940
v -0.488841 0.550774 -0.901940
v 0.657166 -0.091141 0.283640
v 0.657166 0.550774 0.283640
v 0.657166 -0.091141 -0.901940
v 0.657166 0.550774 -0.901940
v 0.089719 1.123373 -0.283808
v 0.657166 0.555925 0.283640
v 0.657166 0.555925 -0.901940
v 0.089719 1.123373 -0.334492
v 0.078607 1.123373 -0.334492
v -0.488841 0.555925 -0.901940
v 0.078607 1.123373 -0.283808
v -0.488841 0.555925 0.283640
v -0.065164 -0.091141 0.283640
v 0.103727 -0.091141 0.283640
v -0.061855 0.163177 0.283640
v 0.106320 0.162060 0.283640
v -0.065164 -0.091141 0.248015
v 0.103727 -0.091141 0.248015
v -0.061855 0.163177 0.248015
v 0.106320 0.162060 0.248015
v 19.773367 -1.282842 -1.356856
v 19.773367 -1.282842 0.105137
v 20.849997 -0.516044 -1.356856
v 20.849997 -0.516044 0.105137
v 21.112513 0.283732 -1.356856
v 21.112513 0.283732 0.105137
v 28.138803 -0.678671 -1.228366
v 28.138803 -0.658721 -1.228366
v 28.138803 -0.658721 -0.228366
v 29.138803 -0.658721 -1.228366
v 28.638803 -0.658721 -1.228366
v 29.638803 -0.658721 -1.228366
v 28.388803 -0.658721 -1.228366
v 29.388803 -0.658721 -1.228366
v 28.888803 -0.658721 -1.228366
v 29.888803 -0.658721 -1.228366
v 28.263803 -0.658721 -1.228366
v 29.263803 -0.658721 -1.228366
v 28.763803 -0.658721 -1.228366
v 29.763803 -0.658721 -1.228366
v 28.513803 -0.658721 -1.228366
v 29.513803 -0.658721 -1.228366
v 29.013803 -0.658721 -1.228366
v 30.013803 -0.658721 -1.228366
v 28.201303 -0.658721 -1.228366
v 28.138803 -0.658721 -0.290866
v 29.201303 -0.658721 -1.228366
v 28.701303 -0.658721 -1.228366
v 29.701303 -0.658721 -1.228366
v 28.451303 -0.658721 -1.228366
v 29.451303 -0.658721 -1.228366
v 28.951303 -0.658721 -1.228366
v 29.951303 -0.658721 -1.228366
v 28.326303 -0.658721 -1.228366
v 29.326303 -0.658721 -1.228366
v 28.826303 -0.658721 -1.228366
v 29.826303 -0.658721 -1.228366
v 28.576303 -0.658721 -1.228366
v 29.576303 -0.658721 -1.228366
v 29.076303 -0.658721 -1.228366
v 30.076303 -0.658721 -1.228366
v 28.138803 -0.658721 0.740384
v 28.170053 -0.658721 -1.228366
v 28.138803 -0.658721 -0.259616
v 29.170053 -0.658721 -1.228366
v 28.670053 -0.658721 -1.228366
v 29.670053 -0.658721 -1.228366
v 28.420053 -0.658721 -1.228366
v 29.420053 -0.658721 -1.228366
v 28.920053 -0.658721 -1.228366
v 29.920053 -0.658721 -1.228366
v 28.295053 -0.658721 -1.228366
v 29.295053 -0.658721 -1.228366
v 28.795053 -0.658721 -1.228366
v 29.795053 -0.658721 -1.228366
v 28.545053 -0.658721 -1.228366
v 29.545053 -0.658721 -1.228366
v 29.045053 -0.658721 -1.228366
v 30.045053 -0.658721 -1.228366
v 28.232553 -0.658721 -1.228366
v 28.138803 -0.658721 -0.322116
v 29.232553 -0.658721 -1.228366
v 28.732553 -0.658721 -1.228366
v 29.732553 -0.658721 -1.228366
v 28.482553 -0.658721 -1.228366
v 29.482553 -0.658721 -1.228366
v 28.982553 -0.658721 -1.228366
v 29.982553 -0.658721 -1.228366
v 28.357553 -0.658721 -1.228366
v 29.357553 -0.658721 -1.228366
v 28.857553 -0.658721 -1.228366
v 29.857553 -0.658721 -1.228366
v 28.607553 -0.658721 -1.228366
v 29.607553 -0.658721 -1.228366
v 29.107553 -0.658721 -1.228366
v 28.138803 -0.658721 -1.197116
v 30.107553 -0.658721 -1.228366
v 32.430134 -0.658721 -0.228366
v 32.430134 -0.658721 -0.728366
v 32.430134 -0.658721 0.271634
v 32.430134 -0.658721 -0.978366
v 32.430134 -0.658721 0.021634
v 32.430134 -0.658721 -0.478366
v 32.430134 -0.658721 0.521634
v 32.430134 -0.658721 -1.103366
v 32.430134 -0.658721 -0.103366
v 32.430134 -0.658721 -0.603366
v 32.430134 -0.658721 0.396634
v 32.430134 -0.658721 -0.853366
v 32.430134 -0.658721 0.146634
v 32.430134 -0.658721 -0.353366
v 32.430134 -0.658721 0.646634
v 32.430134 -0.658721 -1.165866
v 32.430134 -0.658721 -0.165866
v 32.430134 -0.658721 -0.665866
v 32.430134 -0.658721 0.334134
v 32.430134 -0.658721 -0.915866
v 32.430134 -0.658721 0.084134
v 32.430134 -0.658721 -0.415866
v 32.430134 -0.658721 0.584134
v 32.430134 -0.658721 -1.040866
v 32.430134 -0.658721 -0.040866
v 32.430134 -0.658721 -0.540866
v 32.430134 -0.658721 0.459134
v 32.430134 -0.658721 -0.790866
v 32.430134 -0.658721 0.209134
v 32.430134 -0.658721 -0.290866
v 32.430134 -0.658721 0.709134
v 30.430136 -0.658721 0.740384
v 32.430134 -0.658721 -1.197116
v 32.430134 -0.658721 -0.197116
v 32.430134 -0.658721 -0.697116
v 32.430134 -0.658721 0.302884
v 32.430134 -0.658721 -0.947116
v 32.430134 -0.658721 0.052884
v 32.430134 -0.658721 -0.447116
v 32.430134 -0.658721 0.552884
v 32.430134 -0.658721 -1.072116
v 32.430134 -0.658721 -0.072116
v 32.430134 -0.658721 -0.572116
v 32.430134 -0.658721 0.427884
v 32.430134 -0.658721 -0.822116
v 32.430134 -0.658721 0.177884
v 32.430134 -0.658721 -0.322116
v 32.430134 -0.658721 0.677884
v 32.430134 -0.658721 -1.134616
v 32.430134 -0.658721 -0.134616
v 32.430134 -0.658721 -0.634616
v 32.430134 -0.658721 0.365384
v 32.430134 -0.658721 -0.884616
v 32.430134 -0.658721 0.115384
v 32.430134 -0.658721 -0.384616
v 32.430134 -0.658721 0.615384
v 32.430134 -0.658721 -1.009616
v 32.430134 -0.658721 -0.009616
v 32.430134 -0.658721 -0.509616
v 32.430134 -0.658721 0.490384
v 32.430134 -0.658721 -0.759616
v 32.430134 -0.658721 0.240384
v 32.430134 -0.658721 -0.259616
v 30.430136 -0.658721 -1.197116
v 32.430134 -0.658721 0.740384
v 32.398884 -0.658721 0.709134
v 32.398884 -0.658721 -1.165866
v 32.677120 -0.658721 -0.228366
v 32.677120 -0.658721 -0.353366
v 32.677120 -0.658721 -0.103366
v 32.677120 -0.658721 -0.290866
v 32.677120 -0.658721 -0.415866
v 32.677120 -0.658721 -0.165866
v 32.677120 -0.658721 -0.259616
v 32.677120 -0.658721 -0.384616
v 32.677120 -0.658721 -0.134616
v 32.677120 -0.658721 -0.322116
v 32.677120 -0.658721 -0.072116
v 32.677120 -0.658721 -0.447116
v 32.677120 -0.658721 -0.197116
v 32.522476 -0.878093 0.212323
v 32.710068 -0.878093 0.269228
v 32.882957 -0.878093 0.361638
v 33.034492 -0.878093 0.486001
v 33.158852 -0.878093 0.637538
v 33.251266 -0.878093 0.810424
v 33.308167 -0.878093 0.998018
v 33.327385 -0.878093 1.193108
v 33.308167 -0.878093 1.388198
v 33.251266 -0.878093 1.575791
v 33.158852 -0.878093 1.748678
v 33.034492 -0.878093 1.900215
v 32.882957 -0.878093 2.024578
v 32.710068 -0.878093 2.116987
v 32.522476 -0.878093 2.173893
v 32.327385 -0.878093 2.193108
v 32.132294 -0.878093 2.173893
v 31.944704 -0.878093 2.116987
v 31.771814 -0.878093 2.024578
v 31.620279 -0.878093 1.900215
v 31.495913 -0.878093 1.748678
v 31.403505 -0.878093 1.575791
v 31.346600 -0.878093 1.388198
v 31.327385 -0.878093 1.193108
v 31.346600 -0.878093 0.998018
v 31.403505 -0.878093 0.810424
v 31.495913 -0.878093 0.637538
v 31.620279 -0.878093 0.486001
v 31.771814 -0.878093 0.361638
v 31.944704 -0.878093 0.269228
v 32.132294 -0.878093 0.212323
v 32.327385 -0.878093 0.193108
vn -1.0000 -0.0000 -0.0000
vn -0.0000 -0.0000 -1.0000
vn 1.0000 -0.0000 -0.0000
vn -0.0000 -0.0000 1.0000
vn -0.0000 -1.0000 -0.0000
vn -0.0000 1.0000 -0.0000
vn -0.0000 0.7071 0.7071
vn -0.7071 0.7071 -0.0000
vn 0.7071 0.7071 -0.0000
vn -0.0000 0.7071 -0.7071
vn 0.9999 -0.0130 -0.0000
vn -0.0066 -1.0000 -0.0000
vn -0.9999 0.0102 -0.0000
vt 0.375000 0.000000
vt 0.625000 0.000000
vt 0.625000 0.250000
vt 0.375000 0.250000
vt 0.625000 0.500000
vt 0.375000 0.500000
vt 0.625000 0.750000
vt 0.375000 0.750000
vt 0.625000 1.000000
vt 0.375000 1.000000
vt 0.375000 0.907575
vt 0.474047 0.906853
vt 0.473612 0.870166
vt 0.375000 0.870732
vt 0.125000 0.500000
vt 0.254268 0.750000
vt 0.217425 0.750000
vt 0.125000 0.750000
vt 0.748788 0.619656
vt 0.751212 0.619656
vt 0.751212 0.630344
vt 0.748788 0.630344
vt 0.875000 0.750000
vt 0.875000 0.500000
s 0
usemtl Material
f 3/1/1 4/2/1 6/3/1 5/4/1
f 5/4/2 6/3/2 10/5/2 9/6/2
f 9/6/3 10/5/3 8/7/3 7/8/3
f 7/8/4 8/7/4 4/9/4 3/10/4 19/11/4 21/12/4 22/13/4 20/14/4
f 5/15/5 9/6/5 7/8/5 20/16/5 19/17/5 3/18/5
f 6/3/1 4/2/1 18/2/1 16/3/1
f 8/7/3 10/5/3 13/5/3 12/7/3
f 10/5/2 6/3/2 16/3/2 13/5/2
f 14/19/6 15/20/6 17/21/6 11/22/6
f 11/22/7 17/21/7 18/23/7 12/7/7
f 17/21/8 15/20/8 16/24/8 18/23/8
f 14/19/9 11/22/9 12/7/9 13/5/9
f 15/20/10 14/19/10 13/5/10 16/24/10
f 4/9/4 8/7/4 12/7/4 18/9/4
f 21/12/11 19/11/11 23/11/11 25/12/11
f 24/14/4 26/13/4 25/12/4 23/11/4
f 22/13/12 21/12/12 25/12/12 26/13/12
f 19/17/6 20/16/6 24/16/6 23/17/6
f 20/14/13 22/13/13 26/13/13 24/14/13
l 27 28
l 30 29
l 31 32
l 69 34
l 33 34
l 70 35
l 71 36
l 72 37
l 73 38
l 74 39
l 75 40
l 76 41
l 77 42
l 78 43
l 79 44
l 80 45
l 81 46
l 82 47
l 83 48
l 84 49
l 85 50
l 86 51
l 87 52
l 88 53
l 89 54
l 90 55
l 91 56
l 92 57
l 93 58
l 94 59
l 95 60
l 96 61
l 97 62
l 98 63
l 99 64
l 100 65
l 101 66
l 103 67
l 51 69
l 52 70
l 53 71
l 54 72
l 55 73
l 56 74
l 57 75
l 58 76
l 59 77
l 60 78
l 61 79
l 62 80
l 63 81
l 64 82
l 65 83
l 66 84
l 67 85
l 43 86
l 44 88
l 45 89
l 46 90
l 47 91
l 48 92
l 49 93
l 50 94
l 39 95
l 40 96
l 41 97
l 42 98
l 37 99
l 38 100
l 36 101
l 34 102
l 137 104
l 138 105
l 139 106
l 140 107
l 141 108
l 142 109
l 143 110
l 144 111
l 145 112
l 146 113
l 147 114
l 148 115
l 149 116
l 150 117
l 151 118
l 152 119
l 153 120
l 154 121
l 155 122
l 156 123
l 157 124
l 158 125
l 159 126
l 160 127
l 161 128
l 162 129
l 163 130
l 164 131
l 165 132
l 166 133
l 168 134
l 119 136
l 120 137
l 121 138
l 122 139
l 123 140
l 124 141
l 125 142
l 126 143
l 127 144
l 128 145
l 129 146
l 130 147
l 131 148
l 132 149
l 133 150
l 134 151
l 111 152
l 112 153
l 113 154
l 114 155
l 115 156
l 116 157
l 117 158
l 118 159
l 107 160
l 108 161
l 109 162
l 110 163
l 105 164
l 106 165
l 104 166
l 134 169
l 119 170
l 177 171
l 178 172
l 179 173
l 180 174
l 182 175
l 183 176
l 174 177
l 175 178
l 176 179
l 172 180
l 173 181
l 171 183
l 215 184
l 185 186
l 188 189
l 190 191
l 192 193
l 193 194
l 195 196
l 196 197
l 198 199
l 199 200
l 200 201
l 201 202
l 203 204
l 204 205
l 206 207
l 208 209
l 184 185
l 186 187
l 187 188
l 211 212
l 212 213
l 213 214
l 214 215
l 189 190
l 210 211
l 191 192
l 202 203
l 194 195
l 205 206
l 207 208
l 197 198
l 209 210
