# Blender 4.3.2
# www.blender.org
mtllib Ramp.mtl
o Cube
v 3.594283 3.843013 -1.466891
v 3.421760 -1.008795 0.876587
v 3.296760 -1.008795 0.876587
v 3.546760 -1.008795 0.876587
v 3.546760 -0.785610 0.876587
v 3.296760 -1.008795 0.709241
v 3.421760 -1.008795 0.709241
v 3.421760 -1.008795 0.876587
v 3.546760 -1.008795 0.709241
v 3.546760 -0.785610 0.709241
v 3.296760 -1.008795 0.876587
v 3.296760 -1.008795 0.709241
v 3.421760 -1.008795 0.709241
v 3.546760 -0.785610 0.876587
v 3.546760 -0.785610 0.757502
v 19.773367 -1.282842 -1.356856
v 19.773367 -1.282842 0.105137
v -1.011164 0.069693 -0.470940
v -1.011164 0.069693 0.991053
v -0.364441 0.117103 -0.470940
v -0.364441 0.117103 0.991053
v -0.838634 0.064793 -0.470940
v -0.786509 0.063151 -0.470940
v -0.838634 0.064793 0.991053
v -0.786509 0.063151 0.991053
v -0.321947 0.152788 -0.470940
v -0.321947 0.152788 0.991053
v -0.614653 0.079140 -0.470940
v -0.562710 0.083812 -0.470940
v -0.614653 0.079140 0.991053
v -0.562710 0.083812 0.991053
v -0.151817 0.214360 -0.470940
v -0.151817 0.214360 0.991053
v -0.394047 0.120454 -0.470940
v -0.343052 0.131369 -0.470940
v -0.394047 0.120454 0.991053
v -0.343052 0.131369 0.991053
v 0.037121 0.300918 -0.470940
v 0.037121 0.300918 0.991053
v -0.180052 0.188128 -0.470940
v -0.130749 0.205128 -0.470940
v -0.180052 0.188128 0.991053
v -0.130749 0.205128 0.991053
v 0.210363 0.411190 -0.470940
v 0.210363 0.411190 0.991053
v 0.024195 0.281172 -0.470940
v 0.071081 0.304005 -0.470940
v 0.024195 0.281172 0.991053
v 0.071081 0.304005 0.991053
v 0.365604 0.543560 -0.470940
v 0.365604 0.543560 0.991053
v 0.215698 0.398220 -0.470940
v 0.259481 0.426554 -0.470940
v 0.215698 0.398220 0.991053
v 0.259481 0.426554 0.991053
v 0.522831 0.696087 -0.470940
v 0.522831 0.696087 0.991053
v 0.391649 0.537557 -0.470940
v 0.431686 0.570974 -0.470940
v 0.391649 0.537557 0.991053
v 0.431686 0.570974 0.991053
v 0.663946 0.866536 -0.470940
v 0.663946 0.866536 0.991053
v 0.549471 0.697138 -0.470940
v 0.585175 0.735150 -0.470940
v 0.549471 0.697138 0.991053
v 0.585175 0.735150 0.991053
v 0.745415 1.052406 -0.470940
v 0.745415 1.052406 0.991053
v 20.849997 -0.516044 -1.356856
v 20.849997 -0.516044 0.105137
v 21.112513 0.283732 -1.356856
v 21.112513 0.283732 0.105137
v 0.309156 0.477396 0.620841
v 0.325886 0.461733 0.620841
v 0.329370 0.498083 0.620841
v 0.354782 0.460519 0.620841
v 0.309156 0.477396 0.525442
v 0.325886 0.461733 0.525442
v 0.329370 0.498083 0.525442
v 0.354782 0.460519 0.525442
v 0.299217 0.467222 -0.144143
v 0.311848 0.466464 -0.144143
v 0.315964 0.484363 -0.144143
v 0.335791 0.465460 -0.144143
v 0.299217 0.467222 -0.234692
v 0.311848 0.466464 -0.234692
v 0.315964 0.484363 -0.234692
v 0.335791 0.465460 -0.234692
v 0.691841 0.946344 0.253724
v 0.712240 0.950547 0.253724
v 0.714079 0.990373 0.253724
v 0.761549 0.951893 0.253724
v 0.691841 0.946344 0.172695
v 0.712240 0.950547 0.172695
v 0.714079 0.990373 0.172695
v 0.761549 0.951893 0.172695
v 0.304308 -0.052397 0.620841
v 0.333204 -0.053611 0.620841
v 0.333204 -0.053611 0.525442
v 0.304308 -0.052397 0.525442
v 0.290270 -0.047667 -0.144143
v 0.314213 -0.048670 -0.144143
v 0.314213 -0.048670 -0.234692
v 0.290270 -0.047667 -0.234692
v 0.741922 -0.136370 0.253724
v 0.791231 -0.135023 0.253724
v 0.791231 -0.135023 0.172695
v 0.741922 -0.136370 0.172695
v 28.138803 -0.678671 -1.228366
v 28.138803 -0.658721 -1.228366
v 28.138803 -0.658721 -0.228366
v 29.138803 -0.658721 -1.228366
v 28.638803 -0.658721 -1.228366
v 29.638803 -0.658721 -1.228366
v 28.388803 -0.658721 -1.228366
v 29.388803 -0.658721 -1.228366
v 28.888803 -0.658721 -1.228366
v 29.888803 -0.658721 -1.228366
v 28.263803 -0.658721 -1.228366
v 29.263803 -0.658721 -1.228366
v 28.763803 -0.658721 -1.228366
v 29.763803 -0.658721 -1.228366
v 28.513803 -0.658721 -1.228366
v 29.513803 -0.658721 -1.228366
v 29.013803 -0.658721 -1.228366
v 30.013803 -0.658721 -1.228366
v 28.201303 -0.658721 -1.228366
v 28.138803 -0.658721 -0.290866
v 29.201303 -0.658721 -1.228366
v 28.701303 -0.658721 -1.228366
v 29.701303 -0.658721 -1.228366
v 28.451303 -0.658721 -1.228366
v 29.451303 -0.658721 -1.228366
v 28.951303 -0.658721 -1.228366
v 29.951303 -0.658721 -1.228366
v 28.326303 -0.658721 -1.228366
v 29.326303 -0.658721 -1.228366
v 28.826303 -0.658721 -1.228366
v 29.826303 -0.658721 -1.228366
v 28.576303 -0.658721 -1.228366
v 29.576303 -0.658721 -1.228366
v 29.076303 -0.658721 -1.228366
v 30.076303 -0.658721 -1.228366
v 28.138803 -0.658721 0.740384
v 28.170053 -0.658721 -1.228366
v 28.138803 -0.658721 -0.259616
v 29.170053 -0.658721 -1.228366
v 28.670053 -0.658721 -1.228366
v 29.670053 -0.658721 -1.228366
v 28.420053 -0.658721 -1.228366
v 29.420053 -0.658721 -1.228366
v 28.920053 -0.658721 -1.228366
v 29.920053 -0.658721 -1.228366
v 28.295053 -0.658721 -1.228366
v 29.295053 -0.658721 -1.228366
v 28.795053 -0.658721 -1.228366
v 29.795053 -0.658721 -1.228366
v 28.545053 -0.658721 -1.228366
v 29.545053 -0.658721 -1.228366
v 29.045053 -0.658721 -1.228366
v 30.045053 -0.658721 -1.228366
v 28.232553 -0.658721 -1.228366
v 28.138803 -0.658721 -0.322116
v 29.232553 -0.658721 -1.228366
v 28.732553 -0.658721 -1.228366
v 29.732553 -0.658721 -1.228366
v 28.482553 -0.658721 -1.228366
v 29.482553 -0.658721 -1.228366
v 28.982553 -0.658721 -1.228366
v 29.982553 -0.658721 -1.228366
v 28.357553 -0.658721 -1.228366
v 29.357553 -0.658721 -1.228366
v 28.857553 -0.658721 -1.228366
v 29.857553 -0.658721 -1.228366
v 28.607553 -0.658721 -1.228366
v 29.607553 -0.658721 -1.228366
v 29.107553 -0.658721 -1.228366
v 28.138803 -0.658721 -1.197116
v 30.107553 -0.658721 -1.228366
v 32.430134 -0.658721 -0.228366
v 32.430134 -0.658721 -0.728366
v 32.430134 -0.658721 0.271634
v 32.430134 -0.658721 -0.978366
v 32.430134 -0.658721 0.021634
v 32.430134 -0.658721 -0.478366
v 32.430134 -0.658721 0.521634
v 32.430134 -0.658721 -1.103366
v 32.430134 -0.658721 -0.103366
v 32.430134 -0.658721 -0.603366
v 32.430134 -0.658721 0.396634
v 32.430134 -0.658721 -0.853366
v 32.430134 -0.658721 0.146634
v 32.430134 -0.658721 -0.353366
v 32.430134 -0.658721 0.646634
v 32.430134 -0.658721 -1.165866
v 32.430134 -0.658721 -0.165866
v 32.430134 -0.658721 -0.665866
v 32.430134 -0.658721 0.334134
v 32.430134 -0.658721 -0.915866
v 32.430134 -0.658721 0.084134
v 32.430134 -0.658721 -0.415866
v 32.430134 -0.658721 0.584134
v 32.430134 -0.658721 -1.040866
v 32.430134 -0.658721 -0.040866
v 32.430134 -0.658721 -0.540866
v 32.430134 -0.658721 0.459134
v 32.430134 -0.658721 -0.790866
v 32.430134 -0.658721 0.209134
v 32.430134 -0.658721 -0.290866
v 32.430134 -0.658721 0.709134
v 30.430136 -0.658721 0.740384
v 32.430134 -0.658721 -1.197116
v 32.430134 -0.658721 -0.197116
v 32.430134 -0.658721 -0.697116
v 32.430134 -0.658721 0.302884
v 32.430134 -0.658721 -0.947116
v 32.430134 -0.658721 0.052884
v 32.430134 -0.658721 -0.447116
v 32.430134 -0.658721 0.552884
v 32.430134 -0.658721 -1.072116
v 32.430134 -0.658721 -0.072116
v 32.430134 -0.658721 -0.572116
v 32.430134 -0.658721 0.427884
v 32.430134 -0.658721 -0.822116
v 32.430134 -0.658721 0.177884
v 32.430134 -0.658721 -0.322116
v 32.430134 -0.658721 0.677884
v 32.430134 -0.658721 -1.134616
v 32.430134 -0.658721 -0.134616
v 32.430134 -0.658721 -0.634616
v 32.430134 -0.658721 0.365384
v 32.430134 -0.658721 -0.884616
v 32.430134 -0.658721 0.115384
v 32.430134 -0.658721 -0.384616
v 32.430134 -0.658721 0.615384
v 32.430134 -0.658721 -1.009616
v 32.430134 -0.658721 -0.009616
v 32.430134 -0.658721 -0.509616
v 32.430134 -0.658721 0.490384
v 32.430134 -0.658721 -0.759616
v 32.430134 -0.658721 0.240384
v 32.430134 -0.658721 -0.259616
v 30.430136 -0.658721 -1.197116
v 32.430134 -0.658721 0.740384
v 32.398884 -0.658721 0.709134
v 32.398884 -0.658721 -1.165866
v 32.677120 -0.658721 -0.228366
v 32.677120 -0.658721 -0.353366
v 32.677120 -0.658721 -0.103366
v 32.677120 -0.658721 -0.290866
v 32.677120 -0.658721 -0.415866
v 32.677120 -0.658721 -0.165866
v 32.677120 -0.658721 -0.259616
v 32.677120 -0.658721 -0.384616
v 32.677120 -0.658721 -0.134616
v 32.677120 -0.658721 -0.322116
v 32.677120 -0.658721 -0.072116
v 32.677120 -0.658721 -0.447116
v 32.677120 -0.658721 -0.197116
v 32.522476 -0.878093 0.212323
v 32.710068 -0.878093 0.269228
v 32.882957 -0.878093 0.361638
v 33.034492 -0.878093 0.486001
v 33.158852 -0.878093 0.637538
v 33.251266 -0.878093 0.810424
v 33.308167 -0.878093 0.998018
v 33.327385 -0.878093 1.193108
v 33.308167 -0.878093 1.388198
v 33.251266 -0.878093 1.575791
v 33.158852 -0.878093 1.748678
v 33.034492 -0.878093 1.900215
v 32.882957 -0.878093 2.024578
v 32.710068 -0.878093 2.116987
v 32.522476 -0.878093 2.173893
v 32.327385 -0.878093 2.193108
v 32.132294 -0.878093 2.173893
v 31.944704 -0.878093 2.116987
v 31.771814 -0.878093 2.024578
v 31.620279 -0.878093 1.900215
v 31.495913 -0.878093 1.748678
v 31.403505 -0.878093 1.575791
v 31.346600 -0.878093 1.388198
v 31.327385 -0.878093 1.193108
v 31.346600 -0.878093 0.998018
v 31.403505 -0.878093 0.810424
v 31.495913 -0.878093 0.637538
v 31.620279 -0.878093 0.486001
v 31.771814 -0.878093 0.361638
v 31.944704 -0.878093 0.269228
v 32.132294 -0.878093 0.212323
v 32.327385 -0.878093 0.193108
vn -0.0731 0.9973 -0.0000
vn 0.0315 0.9995 -0.0000
vn -0.1895 0.9819 -0.0000
vn -0.0896 0.9960 -0.0000
vn -0.3028 0.9531 -0.0000
vn -0.2093 0.9779 -0.0000
vn -0.4073 0.9133 -0.0000
vn -0.3260 0.9454 -0.0000
vn -0.5171 0.8559 -0.0000
vn -0.4378 0.8991 -0.0000
vn -0.6310 0.7758 -0.0000
vn -0.5433 0.8395 -0.0000
vn -0.7153 0.6989 -0.0000
vn -0.6408 0.7677 -0.0000
vn -0.7863 0.6179 -0.0000
vn -0.7289 0.6846 -0.0000
vn -0.8926 0.4508 -0.0000
vn -0.0000 -0.0000 1.0000
vn 0.8283 0.5603 -0.0000
vn -0.0000 -0.0000 -1.0000
vn -0.6835 -0.7300 -0.0000
vn -0.7152 0.6989 -0.0000
vn 0.9991 -0.0419 -0.0000
vn 0.6901 0.7238 -0.0000
vn -0.0599 -0.9982 -0.0000
vn -0.7153 0.6988 -0.0000
vn 0.6297 0.7768 -0.0000
vn 0.2018 -0.9794 -0.0000
vn -0.0420 -0.9991 -0.0000
vn -0.0419 -0.9991 -0.0000
vn -0.9991 0.0419 -0.0000
vn 0.0273 -0.9996 -0.0000
vn -0.9996 -0.0273 -0.0000
vn 0.9996 0.0273 -0.0000
vt 0.625000 0.500000
vt 0.625000 0.750000
vt 0.875000 0.750000
vt 0.875000 0.500000
vt 0.375000 0.000000
vt 0.625000 0.000000
vt 0.625000 0.250000
vt 0.375000 0.250000
vt 0.375000 0.500000
vt 0.375000 0.750000
vt 0.625000 1.000000
vt 0.375000 1.000000
vt 0.125000 0.500000
vt 0.125000 0.750000
s 0
usemtl Material
f 19/1/1 21/1/1 20/2/1 18/2/1
f 25/1/2 23/2/2 22/3/2 24/4/2
f 25/1/3 27/1/3 26/2/3 23/2/3
f 31/1/4 29/2/4 28/3/4 30/4/4
f 31/1/5 33/1/5 32/2/5 29/2/5
f 37/1/6 35/2/6 34/3/6 36/4/6
f 37/1/7 39/1/7 38/2/7 35/2/7
f 43/1/8 41/2/8 40/3/8 42/4/8
f 43/1/9 45/1/9 44/2/9 41/2/9
f 49/1/10 47/2/10 46/3/10 48/4/10
f 49/1/11 51/1/11 50/2/11 47/2/11
f 55/1/12 53/2/12 52/3/12 54/4/12
f 55/1/13 57/1/13 56/2/13 53/2/13
f 61/1/14 59/2/14 58/3/14 60/4/14
f 61/1/15 63/1/15 62/2/15 59/2/15
f 67/1/16 65/2/16 64/3/16 66/4/16
f 67/1/17 69/1/17 68/2/17 65/2/17
f 74/5/18 75/6/18 77/7/18 76/8/18
f 76/8/19 77/7/19 81/1/19 80/9/19
f 80/9/20 81/1/20 79/2/20 78/10/20
f 78/10/21 79/2/21 75/11/21 74/12/21
f 76/13/22 80/9/22 78/10/22 74/14/22
f 89/1/23 85/7/23 103/7/23 104/1/23
f 82/5/18 83/6/18 85/7/18 84/8/18
f 84/8/24 85/7/24 89/1/24 88/9/24
f 88/9/20 89/1/20 87/2/20 86/10/20
f 86/10/25 87/2/25 83/11/25 82/12/25
f 84/13/26 88/9/26 86/10/26 82/14/26
f 79/2/20 81/1/20 100/1/20 101/2/20
f 90/5/18 91/6/18 93/7/18 92/8/18
f 92/8/27 93/7/27 97/1/27 96/9/27
f 96/9/20 97/1/20 95/2/20 94/10/20
f 94/10/28 95/2/28 91/11/28 90/12/28
f 92/13/17 96/9/17 94/10/17 90/14/17
f 95/2/20 97/1/20 108/1/20 109/2/20
f 100/1/29 99/4/29 98/3/29 101/2/29
f 104/1/30 103/4/30 102/3/30 105/2/30
f 77/7/18 75/6/18 98/6/18 99/7/18
f 75/11/31 79/2/31 101/2/31 98/11/31
f 87/2/20 89/1/20 104/1/20 105/2/20
f 81/1/23 77/7/23 99/7/23 100/1/23
f 85/7/18 83/6/18 102/6/18 103/7/18
f 83/11/31 87/2/31 105/2/31 102/11/31
f 108/1/32 107/4/32 106/3/32 109/2/32
f 93/7/18 91/6/18 106/6/18 107/7/18
f 91/11/33 95/2/33 109/2/33 106/11/33
f 97/1/34 93/7/34 107/7/34 108/1/34
l 14 15
l 4 5
l 7 2
l 9 4
l 9 10
l 3 6
l 8 13
l 11 12
l 16 17
l 71 70
l 72 73
l 146 111
l 110 111
l 147 112
l 148 113
l 149 114
l 150 115
l 151 116
l 152 117
l 153 118
l 154 119
l 155 120
l 156 121
l 157 122
l 158 123
l 159 124
l 160 125
l 161 126
l 162 127
l 163 128
l 164 129
l 165 130
l 166 131
l 167 132
l 168 133
l 169 134
l 170 135
l 171 136
l 172 137
l 173 138
l 174 139
l 175 140
l 176 141
l 177 142
l 178 143
l 180 144
l 128 146
l 129 147
l 130 148
l 131 149
l 132 150
l 133 151
l 134 152
l 135 153
l 136 154
l 137 155
l 138 156
l 139 157
l 140 158
l 141 159
l 142 160
l 143 161
l 144 162
l 120 163
l 121 165
l 122 166
l 123 167
l 124 168
l 125 169
l 126 170
l 127 171
l 116 172
l 117 173
l 118 174
l 119 175
l 114 176
l 115 177
l 113 178
l 111 179
l 214 181
l 215 182
l 216 183
l 217 184
l 218 185
l 219 186
l 220 187
l 221 188
l 222 189
l 223 190
l 224 191
l 225 192
l 226 193
l 227 194
l 228 195
l 229 196
l 230 197
l 231 198
l 232 199
l 233 200
l 234 201
l 235 202
l 236 203
l 237 204
l 238 205
l 239 206
l 240 207
l 241 208
l 242 209
l 243 210
l 245 211
l 196 213
l 197 214
l 198 215
l 199 216
l 200 217
l 201 218
l 202 219
l 203 220
l 204 221
l 205 222
l 206 223
l 207 224
l 208 225
l 209 226
l 210 227
l 211 228
l 188 229
l 189 230
l 190 231
l 191 232
l 192 233
l 193 234
l 194 235
l 195 236
l 184 237
l 185 238
l 186 239
l 187 240
l 182 241
l 183 242
l 181 243
l 211 246
l 196 247
l 254 248
l 255 249
l 256 250
l 257 251
l 259 252
l 260 253
l 251 254
l 252 255
l 253 256
l 249 257
l 250 258
l 248 260
l 292 261
l 262 263
l 265 266
l 267 268
l 269 270
l 270 271
l 272 273
l 273 274
l 275 276
l 276 277
l 277 278
l 278 279
l 280 281
l 281 282
l 283 284
l 285 286
l 261 262
l 263 264
l 264 265
l 288 289
l 289 290
l 290 291
l 291 292
l 266 267
l 287 288
l 268 269
l 279 280
l 271 272
l 282 283
l 284 285
l 274 275
l 286 287
