# Blender 4.3.2
# www.blender.org
mtllib Tree.mtl
o Cube
v 3.594283 3.843013 -1.466891
v 3.421760 -1.008795 0.876587
v 3.296760 -1.008795 0.876587
v 3.546760 -1.008795 0.876587
v 3.546760 -0.785610 0.876587
v 3.296760 -1.008795 0.709241
v 3.421760 -1.008795 0.709241
v 3.421760 -1.008795 0.876587
v 3.546760 -1.008795 0.709241
v 3.546760 -0.785610 0.709241
v 3.296760 -1.008795 0.876587
v 3.296760 -1.008795 0.709241
v 3.421760 -1.008795 0.709241
v 3.546760 -0.785610 0.876587
v 3.546760 -0.785610 0.757502
v 19.773367 -1.282842 -1.356856
v 19.773367 -1.282842 0.105137
v 20.849997 -0.516044 -1.356856
v 20.849997 -0.516044 0.105137
v 21.112513 0.283732 -1.356856
v 21.112513 0.283732 0.105137
v -0.100651 -0.024356 -0.398718
v -0.100651 0.627556 -0.398718
v -0.083590 -0.024356 -0.397051
v -0.083590 0.627556 -0.397051
v -0.067186 -0.024356 -0.392115
v -0.067186 0.627556 -0.392115
v -0.052067 -0.024356 -0.384099
v -0.052067 0.627556 -0.384099
v -0.038816 -0.024356 -0.373311
v -0.038816 0.627556 -0.373311
v -0.027941 -0.024356 -0.360167
v -0.027941 0.627556 -0.360167
v -0.019861 -0.024356 -0.345170
v -0.019861 0.627556 -0.345170
v -0.014885 -0.024356 -0.328898
v -0.014885 0.627556 -0.328898
v -0.013205 -0.024356 -0.311976
v -0.013205 0.627556 -0.311976
v -0.014885 -0.024356 -0.295053
v -0.014885 0.627556 -0.295053
v -0.019861 -0.024356 -0.278781
v -0.019861 0.627556 -0.278781
v -0.027941 -0.024356 -0.263785
v -0.027941 0.627556 -0.263785
v -0.038816 -0.024356 -0.250640
v -0.038816 0.627556 -0.250640
v -0.052067 -0.024356 -0.239853
v -0.052067 0.627556 -0.239853
v -0.067186 -0.024356 -0.231837
v -0.067186 0.627556 -0.231837
v -0.083590 -0.024356 -0.226901
v -0.083590 0.627556 -0.226901
v -0.100651 -0.024356 -0.225234
v -0.100651 0.627556 -0.225234
v -0.117710 -0.024356 -0.226901
v -0.117710 0.627556 -0.226901
v -0.134113 -0.024356 -0.231837
v -0.134113 0.627556 -0.231837
v -0.149231 -0.024356 -0.239853
v -0.149231 0.627556 -0.239853
v -0.162483 -0.024356 -0.250640
v -0.162483 0.627556 -0.250640
v -0.173357 -0.024356 -0.263785
v -0.173357 0.627556 -0.263785
v -0.181438 -0.024356 -0.278781
v -0.181438 0.627556 -0.278781
v -0.186415 -0.024356 -0.295053
v -0.186415 0.627556 -0.295053
v -0.188095 -0.024356 -0.311976
v -0.188095 0.627556 -0.311976
v -0.186415 -0.024356 -0.328898
v -0.186415 0.627556 -0.328898
v -0.181438 -0.024356 -0.345170
v -0.181438 0.627556 -0.345170
v -0.173357 -0.024356 -0.360167
v -0.173357 0.627556 -0.360167
v -0.162483 -0.024356 -0.373311
v -0.162483 0.627556 -0.373311
v -0.149231 -0.024356 -0.384099
v -0.149231 0.627556 -0.384099
v -0.134113 -0.024356 -0.392115
v -0.134113 0.627556 -0.392115
v -0.117710 -0.024356 -0.397051
v -0.117710 0.627556 -0.397051
v -0.106220 0.425090 -0.609654
v 0.172371 0.425090 -0.423813
v 0.144508 0.425090 -0.475860
v 0.107002 0.425090 -0.521479
v 0.061310 0.425090 -0.558918
v 0.009178 0.425090 -0.586738
v -0.047392 0.425090 -0.603869
v 0.189529 0.425090 -0.367338
v 0.195322 0.425090 -0.308607
v 0.189529 0.425090 -0.249876
v 0.172371 0.425090 -0.193401
v 0.144508 0.425090 -0.141354
v 0.107002 0.425090 -0.095735
v 0.061310 0.425090 -0.058296
v 0.009178 0.425090 -0.030476
v -0.047392 0.425090 -0.013345
v -0.106220 0.425090 -0.007560
v -0.165049 0.425090 -0.013345
v -0.221615 0.425090 -0.030476
v -0.273746 0.425090 -0.058296
v -0.319443 0.425090 -0.095735
v -0.356941 0.425090 -0.141354
v -0.384806 0.425090 -0.193401
v -0.401968 0.425090 -0.249876
v -0.407761 0.425090 -0.308607
v -0.401968 0.425090 -0.367338
v -0.384806 0.425090 -0.423813
v -0.356941 0.425090 -0.475860
v -0.319443 0.425090 -0.521479
v -0.273746 0.425090 -0.558918
v -0.221615 0.425090 -0.586738
v -0.165049 0.425090 -0.603869
v -0.106220 1.175932 -0.308607
v -0.112236 0.795695 -0.573442
v -0.059582 0.795695 -0.568146
v -0.008951 0.795695 -0.552464
v 0.037712 0.795695 -0.526997
v 0.078609 0.795695 -0.492724
v 0.112175 0.795695 -0.450962
v 0.137115 0.795695 -0.403317
v 0.152475 0.795695 -0.351618
v 0.157661 0.795695 -0.297854
v 0.152475 0.795695 -0.244089
v 0.137115 0.795695 -0.192391
v 0.112175 0.795695 -0.144746
v 0.078609 0.795695 -0.102984
v 0.037712 0.795695 -0.068711
v -0.008951 0.795695 -0.043244
v -0.059582 0.795695 -0.027561
v -0.112236 0.795695 -0.022266
v -0.164890 0.795695 -0.027561
v -0.215521 0.795695 -0.043244
v -0.262182 0.795695 -0.068711
v -0.303082 0.795695 -0.102984
v -0.336647 0.795695 -0.144746
v -0.361588 0.795695 -0.192391
v -0.376945 0.795695 -0.244089
v -0.382133 0.795695 -0.297854
v -0.376945 0.795695 -0.351618
v -0.361588 0.795695 -0.403317
v -0.336647 0.795695 -0.450962
v -0.303082 0.795695 -0.492724
v -0.262182 0.795695 -0.526997
v -0.215521 0.795695 -0.552464
v -0.164890 0.795695 -0.568146
v -0.112236 1.399949 -0.297854
v 28.138803 -0.678671 -1.228366
v 28.138803 -0.658721 -1.228366
v 28.138803 -0.658721 -0.228366
v 29.138803 -0.658721 -1.228366
v 28.638803 -0.658721 -1.228366
v 29.638803 -0.658721 -1.228366
v 28.388803 -0.658721 -1.228366
v 29.388803 -0.658721 -1.228366
v 28.888803 -0.658721 -1.228366
v 29.888803 -0.658721 -1.228366
v 28.263803 -0.658721 -1.228366
v 29.263803 -0.658721 -1.228366
v 28.763803 -0.658721 -1.228366
v 29.763803 -0.658721 -1.228366
v 28.513803 -0.658721 -1.228366
v 29.513803 -0.658721 -1.228366
v 29.013803 -0.658721 -1.228366
v 30.013803 -0.658721 -1.228366
v 28.201303 -0.658721 -1.228366
v 28.138803 -0.658721 -0.290866
v 29.201303 -0.658721 -1.228366
v 28.701303 -0.658721 -1.228366
v 29.701303 -0.658721 -1.228366
v 28.451303 -0.658721 -1.228366
v 29.451303 -0.658721 -1.228366
v 28.951303 -0.658721 -1.228366
v 29.951303 -0.658721 -1.228366
v 28.326303 -0.658721 -1.228366
v 29.326303 -0.658721 -1.228366
v 28.826303 -0.658721 -1.228366
v 29.826303 -0.658721 -1.228366
v 28.576303 -0.658721 -1.228366
v 29.576303 -0.658721 -1.228366
v 29.076303 -0.658721 -1.228366
v 30.076303 -0.658721 -1.228366
v 28.138803 -0.658721 0.740384
v 28.170053 -0.658721 -1.228366
v 28.138803 -0.658721 -0.259616
v 29.170053 -0.658721 -1.228366
v 28.670053 -0.658721 -1.228366
v 29.670053 -0.658721 -1.228366
v 28.420053 -0.658721 -1.228366
v 29.420053 -0.658721 -1.228366
v 28.920053 -0.658721 -1.228366
v 29.920053 -0.658721 -1.228366
v 28.295053 -0.658721 -1.228366
v 29.295053 -0.658721 -1.228366
v 28.795053 -0.658721 -1.228366
v 29.795053 -0.658721 -1.228366
v 28.545053 -0.658721 -1.228366
v 29.545053 -0.658721 -1.228366
v 29.045053 -0.658721 -1.228366
v 30.045053 -0.658721 -1.228366
v 28.232553 -0.658721 -1.228366
v 28.138803 -0.658721 -0.322116
v 29.232553 -0.658721 -1.228366
v 28.732553 -0.658721 -1.228366
v 29.732553 -0.658721 -1.228366
v 28.482553 -0.658721 -1.228366
v 29.482553 -0.658721 -1.228366
v 28.982553 -0.658721 -1.228366
v 29.982553 -0.658721 -1.228366
v 28.357553 -0.658721 -1.228366
v 29.357553 -0.658721 -1.228366
v 28.857553 -0.658721 -1.228366
v 29.857553 -0.658721 -1.228366
v 28.607553 -0.658721 -1.228366
v 29.607553 -0.658721 -1.228366
v 29.107553 -0.658721 -1.228366
v 28.138803 -0.658721 -1.197116
v 30.107553 -0.658721 -1.228366
v 32.430134 -0.658721 -0.228366
v 32.430134 -0.658721 -0.728366
v 32.430134 -0.658721 0.271634
v 32.430134 -0.658721 -0.978366
v 32.430134 -0.658721 0.021634
v 32.430134 -0.658721 -0.478366
v 32.430134 -0.658721 0.521634
v 32.430134 -0.658721 -1.103366
v 32.430134 -0.658721 -0.103366
v 32.430134 -0.658721 -0.603366
v 32.430134 -0.658721 0.396634
v 32.430134 -0.658721 -0.853366
v 32.430134 -0.658721 0.146634
v 32.430134 -0.658721 -0.353366
v 32.430134 -0.658721 0.646634
v 32.430134 -0.658721 -1.165866
v 32.430134 -0.658721 -0.165866
v 32.430134 -0.658721 -0.665866
v 32.430134 -0.658721 0.334134
v 32.430134 -0.658721 -0.915866
v 32.430134 -0.658721 0.084134
v 32.430134 -0.658721 -0.415866
v 32.430134 -0.658721 0.584134
v 32.430134 -0.658721 -1.040866
v 32.430134 -0.658721 -0.040866
v 32.430134 -0.658721 -0.540866
v 32.430134 -0.658721 0.459134
v 32.430134 -0.658721 -0.790866
v 32.430134 -0.658721 0.209134
v 32.430134 -0.658721 -0.290866
v 32.430134 -0.658721 0.709134
v 30.430136 -0.658721 0.740384
v 32.430134 -0.658721 -1.197116
v 32.430134 -0.658721 -0.197116
v 32.430134 -0.658721 -0.697116
v 32.430134 -0.658721 0.302884
v 32.430134 -0.658721 -0.947116
v 32.430134 -0.658721 0.052884
v 32.430134 -0.658721 -0.447116
v 32.430134 -0.658721 0.552884
v 32.430134 -0.658721 -1.072116
v 32.430134 -0.658721 -0.072116
v 32.430134 -0.658721 -0.572116
v 32.430134 -0.658721 0.427884
v 32.430134 -0.658721 -0.822116
v 32.430134 -0.658721 0.177884
v 32.430134 -0.658721 -0.322116
v 32.430134 -0.658721 0.677884
v 32.430134 -0.658721 -1.134616
v 32.430134 -0.658721 -0.134616
v 32.430134 -0.658721 -0.634616
v 32.430134 -0.658721 0.365384
v 32.430134 -0.658721 -0.884616
v 32.430134 -0.658721 0.115384
v 32.430134 -0.658721 -0.384616
v 32.430134 -0.658721 0.615384
v 32.430134 -0.658721 -1.009616
v 32.430134 -0.658721 -0.009616
v 32.430134 -0.658721 -0.509616
v 32.430134 -0.658721 0.490384
v 32.430134 -0.658721 -0.759616
v 32.430134 -0.658721 0.240384
v 32.430134 -0.658721 -0.259616
v 30.430136 -0.658721 -1.197116
v 32.430134 -0.658721 0.740384
v 32.398884 -0.658721 0.709134
v 32.398884 -0.658721 -1.165866
v 32.677120 -0.658721 -0.228366
v 32.677120 -0.658721 -0.353366
v 32.677120 -0.658721 -0.103366
v 32.677120 -0.658721 -0.290866
v 32.677120 -0.658721 -0.415866
v 32.677120 -0.658721 -0.165866
v 32.677120 -0.658721 -0.259616
v 32.677120 -0.658721 -0.384616
v 32.677120 -0.658721 -0.134616
v 32.677120 -0.658721 -0.322116
v 32.677120 -0.658721 -0.072116
v 32.677120 -0.658721 -0.447116
v 32.677120 -0.658721 -0.197116
v 32.522476 -0.878093 0.212323
v 32.710068 -0.878093 0.269228
v 32.882957 -0.878093 0.361638
v 33.034492 -0.878093 0.486001
v 33.158852 -0.878093 0.637538
v 33.251266 -0.878093 0.810424
v 33.308167 -0.878093 0.998018
v 33.327385 -0.878093 1.193108
v 33.308167 -0.878093 1.388198
v 33.251266 -0.878093 1.575791
v 33.158852 -0.878093 1.748678
v 33.034492 -0.878093 1.900215
v 32.882957 -0.878093 2.024578
v 32.710068 -0.878093 2.116987
v 32.522476 -0.878093 2.173893
v 32.327385 -0.878093 2.193108
v 32.132294 -0.878093 2.173893
v 31.944704 -0.878093 2.116987
v 31.771814 -0.878093 2.024578
v 31.620279 -0.878093 1.900215
v 31.495913 -0.878093 1.748678
v 31.403505 -0.878093 1.575791
v 31.346600 -0.878093 1.388198
v 31.327385 -0.878093 1.193108
v 31.346600 -0.878093 0.998018
v 31.403505 -0.878093 0.810424
v 31.495913 -0.878093 0.637538
v 31.620279 -0.878093 0.486001
v 31.771814 -0.878093 0.361638
v 31.944704 -0.878093 0.269228
v 32.132294 -0.878093 0.212323
v 32.327385 -0.878093 0.193108
vn -0.0000 -0.6859 -0.7277
vn -0.0000 0.6859 -0.7277
vn 0.1409 0.6859 -0.7140
vn 0.1409 -0.6859 -0.7140
vn 0.2766 0.6858 -0.6731
vn 0.2766 -0.6858 -0.6731
vn 0.4021 0.6858 -0.6066
vn 0.4021 -0.6858 -0.6066
vn 0.5126 0.6857 -0.5167
vn 0.5126 -0.6857 -0.5167
vn 0.6038 0.6856 -0.4066
vn 0.6038 -0.6856 -0.4066
vn 0.6718 0.6856 -0.2805
vn 0.6718 -0.6856 -0.2805
vn 0.7138 0.6855 -0.1431
vn 0.7138 -0.6855 -0.1431
vn 0.7280 0.6855 -0.0000
vn 0.7280 -0.6855 -0.0000
vn 0.7138 0.6855 0.1431
vn 0.7138 -0.6855 0.1431
vn 0.6718 0.6856 0.2805
vn 0.6718 -0.6856 0.2805
vn 0.6038 0.6856 0.4066
vn 0.6038 -0.6856 0.4066
vn 0.5126 0.6857 0.5167
vn 0.5126 -0.6857 0.5167
vn 0.4021 0.6858 0.6066
vn 0.4021 -0.6858 0.6066
vn 0.2766 0.6858 0.6731
vn 0.2766 -0.6858 0.6731
vn 0.1409 0.6859 0.7140
vn 0.1409 -0.6859 0.7140
vn -0.0000 0.6859 0.7277
vn -0.0000 -0.6859 0.7277
vn -0.1409 0.6859 0.7140
vn -0.1409 -0.6859 0.7140
vn -0.2766 0.6858 0.6731
vn -0.2766 -0.6858 0.6731
vn -0.4021 0.6858 0.6066
vn -0.4021 -0.6858 0.6066
vn -0.5127 0.6857 0.5167
vn -0.5127 -0.6857 0.5167
vn -0.6038 0.6856 0.4066
vn -0.6038 -0.6856 0.4066
vn -0.6718 0.6856 0.2805
vn -0.6718 -0.6856 0.2805
vn -0.7138 0.6855 0.1431
vn -0.7138 -0.6855 0.1431
vn -0.7280 0.6855 -0.0000
vn -0.7280 -0.6855 -0.0000
vn -0.7138 0.6855 -0.1431
vn -0.7138 -0.6855 -0.1431
vn -0.6718 0.6856 -0.2805
vn -0.6718 -0.6856 -0.2805
vn -0.6038 0.6856 -0.4066
vn -0.6038 -0.6856 -0.4066
vn -0.5127 0.6857 -0.5167
vn -0.5127 -0.6857 -0.5167
vn -0.4021 0.6858 -0.6066
vn -0.4021 -0.6858 -0.6066
vn -0.2766 0.6858 -0.6731
vn -0.2766 -0.6858 -0.6731
vn -0.1409 0.6859 -0.7140
vn -0.1409 -0.6859 -0.7140
vn 0.4373 0.3707 -0.8194
vn 0.0909 0.3706 -0.9243
vn 0.2692 0.3706 -0.8889
vn 0.5886 0.3708 -0.7184
vn 0.7174 0.3709 -0.5898
vn 0.8187 0.3710 -0.4383
vn 0.8885 0.3711 -0.2699
vn 0.9241 0.3711 -0.0911
vn 0.9241 0.3711 0.0911
vn 0.8885 0.3711 0.2700
vn 0.8187 0.3710 0.4383
vn 0.7174 0.3709 0.5898
vn 0.5886 0.3708 0.7184
vn 0.4373 0.3707 0.8194
vn 0.2692 0.3706 0.8889
vn 0.0909 0.3706 0.9243
vn -0.0909 0.3706 0.9243
vn -0.2692 0.3706 0.8889
vn -0.4373 0.3707 0.8194
vn -0.5886 0.3708 0.7184
vn -0.7174 0.3709 0.5897
vn -0.8187 0.3710 0.4383
vn -0.8885 0.3711 0.2700
vn -0.9241 0.3711 0.0911
vn -0.9241 0.3711 -0.0911
vn -0.8885 0.3711 -0.2700
vn -0.8187 0.3710 -0.4383
vn -0.7174 0.3709 -0.5897
vn -0.5886 0.3708 -0.7184
vn -0.4373 0.3707 -0.8194
vn -0.0000 -1.0000 -0.0000
vn -0.2692 0.3706 -0.8889
vn -0.0909 0.3706 -0.9243
vn 0.0911 0.4132 -0.9061
vn 0.2695 0.4127 -0.8701
vn 0.4366 0.4117 -0.7999
vn 0.5857 0.4104 -0.6989
vn 0.7113 0.4090 -0.5717
vn 0.8090 0.4077 -0.4235
vn 0.8757 0.4068 -0.2602
vn 0.9095 0.4063 -0.0877
vn 0.9095 0.4063 0.0877
vn 0.8757 0.4068 0.2602
vn 0.8090 0.4077 0.4235
vn 0.7113 0.4090 0.5717
vn 0.5857 0.4104 0.6989
vn 0.4366 0.4117 0.7999
vn 0.2695 0.4127 0.8701
vn 0.0911 0.4132 0.9061
vn -0.0911 0.4132 0.9061
vn -0.2695 0.4127 0.8701
vn -0.4366 0.4117 0.7999
vn -0.5857 0.4104 0.6989
vn -0.7113 0.4090 0.5717
vn -0.8090 0.4077 0.4235
vn -0.8757 0.4068 0.2601
vn -0.9095 0.4063 0.0878
vn -0.9095 0.4063 -0.0878
vn -0.8757 0.4068 -0.2601
vn -0.8090 0.4077 -0.4235
vn -0.7113 0.4090 -0.5717
vn -0.5857 0.4104 -0.6989
vn -0.4366 0.4117 -0.7999
vn -0.2695 0.4127 -0.8701
vn -0.0911 0.4132 -0.9061
vt 1.000000 0.500000
vt 1.000000 1.000000
vt 0.968750 1.000000
vt 0.968750 0.500000
vt 0.937500 1.000000
vt 0.937500 0.500000
vt 0.906250 1.000000
vt 0.906250 0.500000
vt 0.875000 1.000000
vt 0.875000 0.500000
vt 0.843750 1.000000
vt 0.843750 0.500000
vt 0.812500 1.000000
vt 0.812500 0.500000
vt 0.781250 1.000000
vt 0.781250 0.500000
vt 0.750000 1.000000
vt 0.750000 0.500000
vt 0.718750 1.000000
vt 0.718750 0.500000
vt 0.687500 1.000000
vt 0.687500 0.500000
vt 0.656250 1.000000
vt 0.656250 0.500000
vt 0.625000 1.000000
vt 0.625000 0.500000
vt 0.593750 1.000000
vt 0.593750 0.500000
vt 0.562500 1.000000
vt 0.562500 0.500000
vt 0.531250 1.000000
vt 0.531250 0.500000
vt 0.500000 1.000000
vt 0.500000 0.500000
vt 0.468750 1.000000
vt 0.468750 0.500000
vt 0.437500 1.000000
vt 0.437500 0.500000
vt 0.406250 1.000000
vt 0.406250 0.500000
vt 0.375000 1.000000
vt 0.375000 0.500000
vt 0.343750 1.000000
vt 0.343750 0.500000
vt 0.312500 1.000000
vt 0.312500 0.500000
vt 0.281250 1.000000
vt 0.281250 0.500000
vt 0.250000 1.000000
vt 0.250000 0.500000
vt 0.218750 1.000000
vt 0.218750 0.500000
vt 0.187500 1.000000
vt 0.187500 0.500000
vt 0.156250 1.000000
vt 0.156250 0.500000
vt 0.125000 1.000000
vt 0.125000 0.500000
vt 0.093750 1.000000
vt 0.093750 0.500000
vt 0.062500 1.000000
vt 0.062500 0.500000
vt 0.296822 0.485388
vt 0.250000 0.490000
vt 0.203178 0.485388
vt 0.158156 0.471731
vt 0.116663 0.449553
vt 0.080294 0.419706
vt 0.050447 0.383337
vt 0.028269 0.341844
vt 0.014612 0.296822
vt 0.010000 0.250000
vt 0.014612 0.203178
vt 0.028269 0.158156
vt 0.050447 0.116663
vt 0.080294 0.080294
vt 0.116663 0.050447
vt 0.158156 0.028269
vt 0.203178 0.014612
vt 0.250000 0.010000
vt 0.296822 0.014612
vt 0.341844 0.028269
vt 0.383337 0.050447
vt 0.419706 0.080294
vt 0.449553 0.116663
vt 0.471731 0.158156
vt 0.485388 0.203178
vt 0.490000 0.250000
vt 0.485388 0.296822
vt 0.471731 0.341844
vt 0.449553 0.383337
vt 0.419706 0.419706
vt 0.383337 0.449553
vt 0.341844 0.471731
vt 0.031250 1.000000
vt 0.031250 0.500000
vt 0.000000 1.000000
vt 0.000000 0.500000
vt 0.750000 0.490000
vt 0.796822 0.485388
vt 0.841844 0.471731
vt 0.883337 0.449553
vt 0.919706 0.419706
vt 0.949553 0.383337
vt 0.971731 0.341844
vt 0.985389 0.296822
vt 0.990000 0.250000
vt 0.985389 0.203178
vt 0.971731 0.158156
vt 0.949553 0.116663
vt 0.919706 0.080294
vt 0.883337 0.050447
vt 0.841844 0.028269
vt 0.796822 0.014612
vt 0.750000 0.010000
vt 0.703178 0.014612
vt 0.658156 0.028269
vt 0.616663 0.050447
vt 0.580294 0.080294
vt 0.550447 0.116663
vt 0.528269 0.158156
vt 0.514611 0.203178
vt 0.510000 0.250000
vt 0.514611 0.296822
vt 0.528269 0.341844
vt 0.550447 0.383337
vt 0.580294 0.419706
vt 0.616663 0.449553
vt 0.658156 0.471731
vt 0.703178 0.485388
vt 0.250000 0.250000
s 1
usemtl Material
f 22/1/1 23/2/2 25/3/3 24/4/4
f 24/4/4 25/3/3 27/5/5 26/6/6
f 26/6/6 27/5/5 29/7/7 28/8/8
f 28/8/8 29/7/7 31/9/9 30/10/10
f 30/10/10 31/9/9 33/11/11 32/12/12
f 32/12/12 33/11/11 35/13/13 34/14/14
f 34/14/14 35/13/13 37/15/15 36/16/16
f 36/16/16 37/15/15 39/17/17 38/18/18
f 38/18/18 39/17/17 41/19/19 40/20/20
f 40/20/20 41/19/19 43/21/21 42/22/22
f 42/22/22 43/21/21 45/23/23 44/24/24
f 44/24/24 45/23/23 47/25/25 46/26/26
f 46/26/26 47/25/25 49/27/27 48/28/28
f 48/28/28 49/27/27 51/29/29 50/30/30
f 50/30/30 51/29/29 53/31/31 52/32/32
f 52/32/32 53/31/31 55/33/33 54/34/34
f 54/34/34 55/33/33 57/35/35 56/36/36
f 56/36/36 57/35/35 59/37/37 58/38/38
f 58/38/38 59/37/37 61/39/39 60/40/40
f 60/40/40 61/39/39 63/41/41 62/42/42
f 62/42/42 63/41/41 65/43/43 64/44/44
f 64/44/44 65/43/43 67/45/45 66/46/46
f 66/46/46 67/45/45 69/47/47 68/48/48
f 68/48/48 69/47/47 71/49/49 70/50/50
f 70/50/50 71/49/49 73/51/51 72/52/52
f 72/52/52 73/51/51 75/53/53 74/54/54
f 74/54/54 75/53/53 77/55/55 76/56/56
f 76/56/56 77/55/55 79/57/57 78/58/58
f 78/58/58 79/57/57 81/59/59 80/60/60
f 80/60/60 81/59/59 83/61/61 82/62/62
f 25/63/3 23/64/2 85/65/63 83/66/61 81/67/59 79/68/57 77/69/55 75/70/53 73/71/51 71/72/49 69/73/47 67/74/45 65/75/43 63/76/41 61/77/39 59/78/37 57/79/35 55/80/33 53/81/31 51/82/29 49/83/27 47/84/25 45/85/23 43/86/21 41/87/19 39/88/17 37/89/15 35/90/13 33/91/11 31/92/9 29/93/7 27/94/5
f 82/62/62 83/61/61 85/95/63 84/96/64
f 84/96/64 85/95/63 23/97/2 22/98/1
f 22/99/1 24/100/4 26/101/6 28/102/8 30/103/10 32/104/12 34/105/14 36/106/16 38/107/18 40/108/20 42/109/22 44/110/24 46/111/26 48/112/28 50/113/30 52/114/32 54/115/34 56/116/36 58/117/38 60/118/40 62/119/42 64/120/44 66/121/46 68/122/48 70/123/50 72/124/52 74/125/54 76/126/56 78/127/58 80/128/60 82/129/62 84/130/64
s 0
f 91/94/65 118/131/65 90/93/65
f 86/64/66 118/131/66 92/63/66
f 92/63/67 118/131/67 91/94/67
f 90/93/68 118/131/68 89/92/68
f 89/92/69 118/131/69 88/91/69
f 88/91/70 118/131/70 87/90/70
f 87/90/71 118/131/71 93/89/71
f 93/89/72 118/131/72 94/88/72
f 94/88/73 118/131/73 95/87/73
f 95/87/74 118/131/74 96/86/74
f 96/86/75 118/131/75 97/85/75
f 97/85/76 118/131/76 98/84/76
f 98/84/77 118/131/77 99/83/77
f 99/83/78 118/131/78 100/82/78
f 100/82/79 118/131/79 101/81/79
f 101/81/80 118/131/80 102/80/80
f 102/80/81 118/131/81 103/79/81
f 103/79/82 118/131/82 104/78/82
f 104/78/83 118/131/83 105/77/83
f 105/77/84 118/131/84 106/76/84
f 106/76/85 118/131/85 107/75/85
f 107/75/86 118/131/86 108/74/86
f 108/74/87 118/131/87 109/73/87
f 109/73/88 118/131/88 110/72/88
f 110/72/89 118/131/89 111/71/89
f 111/71/90 118/131/90 112/70/90
f 112/70/91 118/131/91 113/69/91
f 113/69/92 118/131/92 114/68/92
f 114/68/93 118/131/93 115/67/93
f 115/67/94 118/131/94 116/66/94
f 91/101/95 90/102/95 89/103/95 88/104/95 87/105/95 93/106/95 94/107/95 95/108/95 96/109/95 97/110/95 98/111/95 99/112/95 100/113/95 101/114/95 102/115/95 103/116/95 104/117/95 105/118/95 106/119/95 107/120/95 108/121/95 109/122/95 110/123/95 111/124/95 112/125/95 113/126/95 114/127/95 115/128/95 116/129/95 117/130/95 86/99/95 92/100/95
f 116/66/96 118/131/96 117/65/96
f 117/65/97 118/131/97 86/64/97
f 119/64/98 151/131/98 120/63/98
f 120/63/99 151/131/99 121/94/99
f 121/94/100 151/131/100 122/93/100
f 122/93/101 151/131/101 123/92/101
f 123/92/102 151/131/102 124/91/102
f 124/91/103 151/131/103 125/90/103
f 125/90/104 151/131/104 126/89/104
f 126/89/105 151/131/105 127/88/105
f 127/88/106 151/131/106 128/87/106
f 128/87/107 151/131/107 129/86/107
f 129/86/108 151/131/108 130/85/108
f 130/85/109 151/131/109 131/84/109
f 131/84/110 151/131/110 132/83/110
f 132/83/111 151/131/111 133/82/111
f 133/82/112 151/131/112 134/81/112
f 134/81/113 151/131/113 135/80/113
f 135/80/114 151/131/114 136/79/114
f 136/79/115 151/131/115 137/78/115
f 137/78/116 151/131/116 138/77/116
f 138/77/117 151/131/117 139/76/117
f 139/76/118 151/131/118 140/75/118
f 140/75/119 151/131/119 141/74/119
f 141/74/120 151/131/120 142/73/120
f 142/73/121 151/131/121 143/72/121
f 143/72/122 151/131/122 144/71/122
f 144/71/123 151/131/123 145/70/123
f 145/70/124 151/131/124 146/69/124
f 146/69/125 151/131/125 147/68/125
f 147/68/126 151/131/126 148/67/126
f 148/67/127 151/131/127 149/66/127
f 119/99/95 120/100/95 121/101/95 122/102/95 123/103/95 124/104/95 125/105/95 126/106/95 127/107/95 128/108/95 129/109/95 130/110/95 131/111/95 132/112/95 133/113/95 134/114/95 135/115/95 136/116/95 137/117/95 138/118/95 139/119/95 140/120/95 141/121/95 142/122/95 143/123/95 144/124/95 145/125/95 146/126/95 147/127/95 148/128/95 149/129/95 150/130/95
f 149/66/128 151/131/128 150/65/128
f 150/65/129 151/131/129 119/64/129
l 14 15
l 4 5
l 7 2
l 9 4
l 9 10
l 3 6
l 8 13
l 11 12
l 16 17
l 19 18
l 20 21
l 188 153
l 152 153
l 189 154
l 190 155
l 191 156
l 192 157
l 193 158
l 194 159
l 195 160
l 196 161
l 197 162
l 198 163
l 199 164
l 200 165
l 201 166
l 202 167
l 203 168
l 204 169
l 205 170
l 206 171
l 207 172
l 208 173
l 209 174
l 210 175
l 211 176
l 212 177
l 213 178
l 214 179
l 215 180
l 216 181
l 217 182
l 218 183
l 219 184
l 220 185
l 222 186
l 170 188
l 171 189
l 172 190
l 173 191
l 174 192
l 175 193
l 176 194
l 177 195
l 178 196
l 179 197
l 180 198
l 181 199
l 182 200
l 183 201
l 184 202
l 185 203
l 186 204
l 162 205
l 163 207
l 164 208
l 165 209
l 166 210
l 167 211
l 168 212
l 169 213
l 158 214
l 159 215
l 160 216
l 161 217
l 156 218
l 157 219
l 155 220
l 153 221
l 256 223
l 257 224
l 258 225
l 259 226
l 260 227
l 261 228
l 262 229
l 263 230
l 264 231
l 265 232
l 266 233
l 267 234
l 268 235
l 269 236
l 270 237
l 271 238
l 272 239
l 273 240
l 274 241
l 275 242
l 276 243
l 277 244
l 278 245
l 279 246
l 280 247
l 281 248
l 282 249
l 283 250
l 284 251
l 285 252
l 287 253
l 238 255
l 239 256
l 240 257
l 241 258
l 242 259
l 243 260
l 244 261
l 245 262
l 246 263
l 247 264
l 248 265
l 249 266
l 250 267
l 251 268
l 252 269
l 253 270
l 230 271
l 231 272
l 232 273
l 233 274
l 234 275
l 235 276
l 236 277
l 237 278
l 226 279
l 227 280
l 228 281
l 229 282
l 224 283
l 225 284
l 223 285
l 253 288
l 238 289
l 296 290
l 297 291
l 298 292
l 299 293
l 301 294
l 302 295
l 293 296
l 294 297
l 295 298
l 291 299
l 292 300
l 290 302
l 334 303
l 304 305
l 307 308
l 309 310
l 311 312
l 312 313
l 314 315
l 315 316
l 317 318
l 318 319
l 319 320
l 320 321
l 322 323
l 323 324
l 325 326
l 327 328
l 303 304
l 305 306
l 306 307
l 330 331
l 331 332
l 332 333
l 333 334
l 308 309
l 329 330
l 310 311
l 321 322
l 313 314
l 324 325
l 326 327
l 316 317
l 328 329
